<?xml version="1.0" encoding="UTF-8" standalone="no"?>
<!-- Created with Inkscape (http://www.inkscape.org/) -->

<svg
   xmlns:dc="http://purl.org/dc/elements/1.1/"
   xmlns:cc="http://creativecommons.org/ns#"
   xmlns:rdf="http://www.w3.org/1999/02/22-rdf-syntax-ns#"
   xmlns:svg="http://www.w3.org/2000/svg"
   xmlns="http://www.w3.org/2000/svg"
   xmlns:sodipodi="http://sodipodi.sourceforge.net/DTD/sodipodi-0.dtd"
   xmlns:inkscape="http://www.inkscape.org/namespaces/inkscape"
   version="1.1"
   id="svg2"
   width="67.333336"
   height="50.666668"
   viewBox="0 0 67.333336 50.666668"
   sodipodi:docname="BAA.svg"
   inkscape:version="0.92.3 (2405546, 2018-03-11)">
  <metadata
     id="metadata8">
    <rdf:RDF>
      <cc:Work
         rdf:about="">
        <dc:format>image/svg+xml</dc:format>
        <dc:type
           rdf:resource="http://purl.org/dc/dcmitype/StillImage" />
        <dc:title></dc:title>
      </cc:Work>
    </rdf:RDF>
  </metadata>
  <defs
     id="defs6" />
  <sodipodi:namedview
     pagecolor="#ffffff"
     bordercolor="#666666"
     borderopacity="1"
     objecttolerance="10"
     gridtolerance="10"
     guidetolerance="10"
     inkscape:pageopacity="0"
     inkscape:pageshadow="2"
     inkscape:window-width="1859"
     inkscape:window-height="1025"
     id="namedview4"
     showgrid="false"
     inkscape:zoom="4.6578946"
     inkscape:cx="33.666668"
     inkscape:cy="25.333334"
     inkscape:window-x="61"
     inkscape:window-y="27"
     inkscape:window-maximized="1"
     inkscape:current-layer="svg2" />
  <path
     style="fill:#000000;stroke-width:0.66666669"
     d="m 3.3333335,24.444445 c 0,-11.122223 0.1448252,-20.367048 0.3218339,-20.5440566 C 3.8321761,3.7233797 6.4571762,4.4023059 9.488501,5.4091132 22.64433,9.7786169 41.984909,9.8435569 55.532998,5.5637176 58.423058,4.6507484 61.21043,4.0660091 61.72716,4.264297 c 0.778828,0.2988641 0.939509,3.7209079 0.939509,20.008769 0,10.806536 -0.262869,19.810708 -0.584154,20.009272 C 61.76123,44.480904 59.33221,43.90661 56.68469,43.00613 50.730577,40.981006 39.955731,39.333334 32.666668,39.333334 c -7.303675,0 -18.067303,1.648826 -24.0522777,3.684448 -2.6663597,0.906887 -4.945381,1.648886 -5.0644918,1.648886 -0.1191108,0 -0.216565,-9.1 -0.216565,-20.222223 z m 7.0000005,11.488469 v -4.266247 l -2.5000004,-0.20691 -2.5000001,-0.20691 v 5.338679 5.338678 L 7.8333336,41.064682 10.333334,40.19916 Z m 49.666668,0.69351 v -5.373577 l -2.5,0.20691 -2.5,0.20691 v 4.273854 4.273854 l 2.333334,0.842094 c 1.283333,0.463152 2.408333,0.864918 2.5,0.892813 0.09167,0.02789 0.166666,-2.36739 0.166666,-5.322858 z m -40.465943,1.62366 c 1.763189,-0.350283 1.856192,-0.544316 1.666667,-3.4772 l -0.200725,-3.106217 h -4 -4 l -0.20235,3.914222 -0.202349,3.914221 2.535683,-0.43702 c 1.394625,-0.240362 3.376009,-0.603964 4.403074,-0.808006 z m 32.999212,-2.750083 -0.199936,-3.833334 h -4 -4 l -0.201692,3.129888 -0.201692,3.129887 2.535026,0.424708 c 1.394264,0.23359 2.835025,0.526456 3.201692,0.650815 2.659452,0.901978 3.070132,0.400275 2.866602,-3.501964 z m -23.699937,1.842437 2.500001,-0.0091 v -3.033269 -3.03327 l -3.833334,0.199936 -3.833333,0.199936 -0.206798,3.254916 c -0.197846,3.114003 -0.140123,3.237059 1.333333,2.842437 0.847072,-0.226864 2.665131,-0.416576 4.040131,-0.421582 z m 13.036528,-2.509104 -0.203194,-3.166667 -3.833333,-0.199936 -3.833334,-0.199936 v 2.998431 2.998429 l 3.5,0.244851 c 1.925001,0.134669 3.741438,0.300346 4.036528,0.368174 0.29509,0.06783 0.44509,-1.301679 0.333333,-3.043346 z M 10.666667,24.000001 V 18.666667 H 8.0000003 5.3333335 v 5.333334 5.333333 h 2.6666668 2.6666667 z m 10.666667,-0.03181 V 18.603042 L 17.166667,18.80152 13.000001,19 l -0.19471,5.166667 -0.19471,5.166667 h 4.361377 4.361376 v -5.365145 z m 10.000001,0.03181 v -5.333334 h -4.000001 -4 v 5.333334 5.333333 h 4 4.000001 z m 10.666667,0 v -5.333334 h -4 -4.000001 v 5.333334 5.333333 h 4.000001 4 z m 10.666667,0 v -5.333334 h -4.333334 -4.333333 v 5.333334 5.333333 h 4.333333 4.333334 z m 7.333333,0 v -5.333334 h -2.666666 -2.666667 v 5.333334 5.333333 h 2.666667 2.666666 z M 10.666667,12.39855 c 0,-4.1879151 -0.03945,-4.2818691 -2.099482,-4.9999998 C 7.4124696,6.9960142 6.2124695,6.6666668 5.900518,6.6666668 c -0.3119514,0 -0.5671845,2.2500001 -0.5671845,5.0000002 v 5 h 2.6666668 2.6666667 z m 10.666667,1.026745 V 10.183923 L 17.330461,9.5392789 c -2.20158,-0.354554 -4.15158,-0.4959367 -4.333333,-0.3141833 -0.495606,0.495606 -0.398037,6.4851064 0.113984,6.9971264 0.244444,0.244445 2.194444,0.444445 4.333333,0.444445 h 3.888889 z m 10.000001,0.241372 v -3 h -4.000001 -4 v 3 3 h 4 4.000001 z m 10.666667,0 v -3 h -4 -4.000001 v 3 3 h 4.000001 4 z m 10.666667,-1.044925 c 0,-3.5374978 -0.146356,-4.0022371 -1.166667,-3.7046404 -0.641667,0.1871566 -2.591667,0.541436 -4.333333,0.7872873 l -3.166667,0.4470031 v 3.257638 3.257637 h 4.333333 4.333334 z m 7.333333,-0.955075 c 0,-2.7500001 -0.255233,-5.0000002 -0.567184,-5.0000002 -0.311952,0 -1.511952,0.3293474 -2.666667,0.7318834 -2.060032,0.7181307 -2.099482,0.8120847 -2.099482,4.9999998 v 4.268117 h 2.666667 2.666666 z"
     id="path4520"
     inkscape:connector-curvature="0" />
</svg>
