<?xml version="1.0" encoding="UTF-8" standalone="no"?>
<!-- Created with Inkscape (http://www.inkscape.org/) -->

<svg
   xmlns:dc="http://purl.org/dc/elements/1.1/"
   xmlns:cc="http://creativecommons.org/ns#"
   xmlns:rdf="http://www.w3.org/1999/02/22-rdf-syntax-ns#"
   xmlns:svg="http://www.w3.org/2000/svg"
   xmlns="http://www.w3.org/2000/svg"
   xmlns:sodipodi="http://sodipodi.sourceforge.net/DTD/sodipodi-0.dtd"
   xmlns:inkscape="http://www.inkscape.org/namespaces/inkscape"
   version="1.1"
   id="svg2"
   width="49.333332"
   height="42.666668"
   viewBox="0 0 49.333332 42.666668"
   sodipodi:docname="BAC.svg"
   inkscape:version="0.92.3 (2405546, 2018-03-11)">
  <metadata
     id="metadata8">
    <rdf:RDF>
      <cc:Work
         rdf:about="">
        <dc:format>image/svg+xml</dc:format>
        <dc:type
           rdf:resource="http://purl.org/dc/dcmitype/StillImage" />
        <dc:title></dc:title>
      </cc:Work>
    </rdf:RDF>
  </metadata>
  <defs
     id="defs6" />
  <sodipodi:namedview
     pagecolor="#ffffff"
     bordercolor="#666666"
     borderopacity="1"
     objecttolerance="10"
     gridtolerance="10"
     guidetolerance="10"
     inkscape:pageopacity="0"
     inkscape:pageshadow="2"
     inkscape:window-width="1859"
     inkscape:window-height="1025"
     id="namedview4"
     showgrid="false"
     inkscape:zoom="5.5312498"
     inkscape:cx="24.666666"
     inkscape:cy="21.333334"
     inkscape:window-x="61"
     inkscape:window-y="27"
     inkscape:window-maximized="1"
     inkscape:current-layer="svg2" />
  <path
     style="fill:#000000;stroke-width:0.66666669"
     d="m 24.796806,35.21878 c 0.290177,-4.447835 1.86986,-4.679597 1.86986,-0.274335 0,2.620979 -0.234873,3.388889 -1.036527,3.388889 -0.818676,0 -0.993821,-0.654598 -0.833333,-3.114554 z m -3.811343,-0.05211 c 0.550371,-2.945148 1.62302,-4.491516 2.504279,-3.610258 0.892811,0.892812 -0.817342,6.110258 -2.002795,6.110258 -0.757961,0 -0.867045,-0.543807 -0.501484,-2.5 z m 7.685305,0.844122 c -0.855304,-2.249622 -0.856464,-4.150666 -0.0029,-4.678226 0.697598,-0.43114 1.711014,1.649704 2.103093,4.318278 0.323646,2.202794 -1.294174,2.480063 -2.10024,0.359948 z M 4,21.40466 c 0,-6.310965 0.178321,-7.66377 1.054525,-8.000001 1.658802,-0.636542 17.838189,-0.452146 18.892761,0.215321 0.804416,0.509137 0.77139,0.868012 -0.218974,2.379499 -1.072724,1.637185 -1.080344,1.874872 -0.095,2.96366 0.822831,0.909218 0.920058,1.5814 0.419262,2.898593 -0.416984,1.096751 -0.423813,2.510482 -0.01895,3.922168 0.348174,1.214014 0.633044,2.434279 0.633044,2.711699 0,0.277421 -4.65,0.504402 -10.333333,0.504402 H 4 Z m 17.666666,2.031874 c 0,-2.039724 -0.391201,-4.034948 -0.914963,-4.666538 -0.733838,-0.884916 -0.750672,-1.301288 -0.08504,-2.103329 0.729616,-0.879134 -0.106584,-1 -6.918369,-1 H 6 v 5.666667 5.666667 l 7.833333,-1.31e-4 7.833333,-1.29e-4 z m 5.145744,4.3968 c -0.263492,-0.641667 -0.463208,-2.741667 -0.443812,-4.666667 0.0194,-1.925 -0.173507,-3.5 -0.428674,-3.5 -1.349814,0 -1.124379,-2.402669 0.414772,-4.4206 L 28.067855,13 h 7.578214 c 4.168018,0 8.052749,0.182097 8.632739,0.404659 0.876204,0.336231 1.054524,1.689036 1.054524,8.000001 v 7.595341 h -9.020923 c -7.964405,0 -9.077031,-0.136639 -9.499999,-1.166667 z m 15.854256,-6.5 v -5.666667 h -6.91837 c -5.374338,0 -7.105908,0.225969 -7.758674,1.012505 -0.685568,0.826058 -0.635729,1.238559 0.27065,2.240098 0.83746,0.925382 0.958674,1.628124 0.49238,2.854571 -0.340217,0.894839 -0.46377,2.436795 -0.274563,3.426569 l 0.344013,1.799591 h 6.922282 6.922282 z M 22.164736,10.861588 C 21.773088,10.387715 21.242414,8.8750004 20.985463,7.5000004 20.606632,5.4727951 20.716568,5.0000003 21.566776,5.0000003 c 0.664513,0 1.319832,1.0076547 1.789392,2.7514694 0.782824,2.9071853 0.104437,4.6780493 -1.191432,3.1101183 z m 6.180889,0.158301 c -0.699012,-1.1310245 0.331184,-6.0198887 1.268528,-6.0198887 1.428789,0 1.583962,0.6482065 0.794908,3.3205688 -0.89042,3.0156639 -1.430928,3.7227399 -2.063436,2.6993199 z m -3.234514,-0.464334 c -0.244445,-0.244443 -0.444445,-1.7444432 -0.444445,-3.3333326 0,-2.1234567 0.264958,-2.8888888 1,-2.8888888 0.755556,0 1,0.8148149 1,3.3333335 0,3.0978219 -0.471317,3.9731259 -1.555555,2.8888879 z"
     id="path817"
     inkscape:connector-curvature="0" />
</svg>
