<?xml version="1.0" encoding="UTF-8" standalone="no"?>
<!-- Created with Inkscape (http://www.inkscape.org/) -->

<svg
   xmlns:dc="http://purl.org/dc/elements/1.1/"
   xmlns:cc="http://creativecommons.org/ns#"
   xmlns:rdf="http://www.w3.org/1999/02/22-rdf-syntax-ns#"
   xmlns:svg="http://www.w3.org/2000/svg"
   xmlns="http://www.w3.org/2000/svg"
   xmlns:sodipodi="http://sodipodi.sourceforge.net/DTD/sodipodi-0.dtd"
   xmlns:inkscape="http://www.inkscape.org/namespaces/inkscape"
   version="1.1"
   id="svg2"
   width="64.666664"
   height="43.333332"
   viewBox="0 0 64.666664 43.333332"
   sodipodi:docname="BAD.svg"
   inkscape:version="0.92.3 (2405546, 2018-03-11)">
  <metadata
     id="metadata8">
    <rdf:RDF>
      <cc:Work
         rdf:about="">
        <dc:format>image/svg+xml</dc:format>
        <dc:type
           rdf:resource="http://purl.org/dc/dcmitype/StillImage" />
        <dc:title></dc:title>
      </cc:Work>
    </rdf:RDF>
  </metadata>
  <defs
     id="defs6" />
  <sodipodi:namedview
     pagecolor="#ffffff"
     bordercolor="#666666"
     borderopacity="1"
     objecttolerance="10"
     gridtolerance="10"
     guidetolerance="10"
     inkscape:pageopacity="0"
     inkscape:pageshadow="2"
     inkscape:window-width="1859"
     inkscape:window-height="1025"
     id="namedview4"
     showgrid="false"
     inkscape:zoom="5.446154"
     inkscape:cx="32.333332"
     inkscape:cy="21.666666"
     inkscape:window-x="61"
     inkscape:window-y="27"
     inkscape:window-maximized="1"
     inkscape:current-layer="svg2" />
  <path
     style="fill:#000000;stroke-width:0.66666663"
     d="m 1.9999999,37.971956 v -2.69471 l 5.1666665,0.19471 5.1666666,0.19471 0.20691,2.499999 0.20691,2.5 H 7.3735764 1.9999999 Z m 11.9999991,0.02804 v -2.666667 h 5.333334 5.333333 v 2.666667 2.666666 h -5.333333 -5.333334 z m 12.259689,1.71515 c -0.200822,-0.523334 -0.266406,-1.648334 -0.145743,-2.499999 0.206663,-1.458674 0.538382,-1.559714 5.719387,-1.742112 l 5.5,-0.193629 v 2.693628 2.693628 h -5.354257 c -4.02309,0 -5.445034,-0.236564 -5.719387,-0.951516 z m 12.5334,-1.548484 0.20691,-2.499999 5.5,-0.193628 5.5,-0.193629 v 2.693628 2.693628 h -5.70691 -5.70691 z m 12.666667,0 0.20691,-2.499999 h 4.955351 4.955353 l 0.06398,2.499999 0.06398,2.5 h -5.226245 -5.226245 l 0.206911,-2.5 z m -3.002888,-6.837426 -4.461273,-3.377272 1.474278,-1.994069 c 0.810853,-1.096738 1.862661,-1.845033 2.33735,-1.662877 1.302565,0.49984 8.196276,5.803863 8.1688,6.285075 -0.01319,0.230946 -0.706604,1.253868 -1.540928,2.273159 l -1.516954,1.853256 z m 8.515769,-1.069052 -3.144398,-4.406479 1.919214,-1.569546 c 1.055566,-0.86325 2.069212,-1.568634 2.252546,-1.567521 0.422148,0.0025 4.177201,5.107157 5.281467,7.179591 0.725172,1.360966 0.638102,1.770112 -0.673892,3.166666 -0.828664,0.882072 -1.728034,1.603768 -1.998599,1.603768 -0.270567,0 -1.906918,-1.982916 -3.636338,-4.406479 z M 1.9999999,31.333332 c 0,-2.518518 0.1111111,-2.666666 1.9999999,-2.666666 1.8888888,0 2,0.148148 2,2.666666 0,2.518519 -0.1111112,2.666667 -2,2.666667 -1.8888888,0 -1.9999999,-0.148148 -1.9999999,-2.666667 z m 5.3333331,0 v -2.666666 h 5.666666 5.666667 v 2.666666 2.666667 H 12.999999 7.333333 Z m 12.666666,0 v -2.666666 h 5.666667 5.666666 v 2.666666 2.666667 h -5.666666 -5.666667 z m 12.666666,0 v -2.666666 h 5.666667 5.666666 v 2.666666 2.666667 h -5.666666 -5.666667 z m -3.200497,-4.045136 c -1.210273,-0.256833 -2.323374,-0.589846 -2.473558,-0.740029 -0.661424,-0.661425 0.600732,-3.213961 1.585143,-3.205731 2.29331,0.01917 4.088507,0.856309 4.078704,1.901984 -0.01843,1.96552 -0.89944,2.529918 -3.190289,2.043776 z m 7.612914,-0.927728 c -0.593496,-0.90579 -1.079083,-2.043547 -1.079083,-2.52835 0,-0.484802 1.997386,-2.030255 4.438636,-3.434339 l 4.438636,-2.552879 1.213206,1.577549 c 2.122226,2.759562 1.944126,3.035595 -4.178061,6.475494 l -3.754249,2.109415 z M 1.9999999,24.694709 v -2.69471 h 5.3735765 5.3735766 l -0.20691,2.5 -0.20691,2.5 -5.1666666,0.194709 -5.1666665,0.19471 z m 11.9999991,-0.02804 v -2.666667 h 5.333334 5.333333 v 2.666667 2.666666 H 19.333333 13.999999 Z M 1.9999999,17.999999 c 0,-2.518518 0.1111111,-2.666666 1.9999999,-2.666666 1.8888888,0 2,0.148148 2,2.666666 0,2.518519 -0.1111112,2.666667 -2,2.666667 -1.8888888,0 -1.9999999,-0.148148 -1.9999999,-2.666667 z m 5.7777778,2.222222 C 7.533333,19.977777 7.333333,18.777777 7.333333,17.555555 v -2.222222 h 5.666666 5.666667 v 2.666666 2.666667 h -5.222222 c -2.872222,0 -5.4222223,-0.2 -5.6666663,-0.444445 z m 12.2222213,-2.19526 v -2.693628 h 5.70691 5.70691 l -0.20691,2.5 -0.20691,2.5 -5.5,0.193628 -5.5,0.193628 z M 1.9999999,11 V 7.9439138 L 7.1666664,8.1386237 12.333333,8.3333331 V 11 13.666666 l -5.1666666,0.19471 -5.1666665,0.19471 z M 13.999999,11 V 7.9999998 h 5.333334 5.333333 V 11 14 h -5.333333 -5.333334 z m 12.262695,2.056315 C 26.063524,12.537288 25.99794,11.262288 26.11695,10.222982 26.332995,8.3362771 26.3419,8.3330317 31.833332,8.1397051 l 5.5,-0.1936287 V 10.973038 14 h -5.354257 c -4.002336,0 -5.445691,-0.238276 -5.716381,-0.943685 z M 1.9999999,3.9999999 c 0,-2.5185185 0.1111111,-2.6666666 1.9999999,-2.6666666 1.8888888,0 2,0.1481481 2,2.6666666 0,2.5185184 -0.1111112,2.6666666 -2,2.6666666 -1.8888888,0 -1.9999999,-0.1481482 -1.9999999,-2.6666666 z m 5.4597565,0.1666666 0.20691,-2.4999999 5.4999996,-0.1936282 5.5,-0.1936282 v 2.6936281 2.6936282 h -5.70691 -5.7069103 z m 12.6666666,0 0.206909,-2.4999999 h 5.333334 5.333333 l 0.20691,2.4999999 0.20691,2.5 h -5.747153 -5.747154 z"
     id="path817"
     inkscape:connector-curvature="0" />
</svg>
