<?xml version="1.0" encoding="UTF-8" standalone="no"?>
<!-- Created with Inkscape (http://www.inkscape.org/) -->

<svg
   xmlns:dc="http://purl.org/dc/elements/1.1/"
   xmlns:cc="http://creativecommons.org/ns#"
   xmlns:rdf="http://www.w3.org/1999/02/22-rdf-syntax-ns#"
   xmlns:svg="http://www.w3.org/2000/svg"
   xmlns="http://www.w3.org/2000/svg"
   xmlns:sodipodi="http://sodipodi.sourceforge.net/DTD/sodipodi-0.dtd"
   xmlns:inkscape="http://www.inkscape.org/namespaces/inkscape"
   version="1.1"
   id="svg2"
   width="50.666668"
   height="49.333332"
   viewBox="0 0 50.666668 49.333332"
   sodipodi:docname="BAF.svg"
   inkscape:version="0.92.3 (2405546, 2018-03-11)">
  <metadata
     id="metadata8">
    <rdf:RDF>
      <cc:Work
         rdf:about="">
        <dc:format>image/svg+xml</dc:format>
        <dc:type
           rdf:resource="http://purl.org/dc/dcmitype/StillImage" />
        <dc:title></dc:title>
      </cc:Work>
    </rdf:RDF>
  </metadata>
  <defs
     id="defs6" />
  <sodipodi:namedview
     pagecolor="#ffffff"
     bordercolor="#666666"
     borderopacity="1"
     objecttolerance="10"
     gridtolerance="10"
     guidetolerance="10"
     inkscape:pageopacity="0"
     inkscape:pageshadow="2"
     inkscape:window-width="1859"
     inkscape:window-height="1025"
     id="namedview4"
     showgrid="false"
     inkscape:zoom="4.7837839"
     inkscape:cx="25.333334"
     inkscape:cy="24.666666"
     inkscape:window-x="61"
     inkscape:window-y="27"
     inkscape:window-maximized="1"
     inkscape:current-layer="svg2" />
  <path
     style="fill:#000000;stroke-width:0.66666669"
     d="M 2.5169459,24.999702 C 2.415959,12.349539 2.4913793,1.9995389 2.6845464,1.9997025 c 0.1931672,1.636e-4 2.420559,2.0856226 4.9497598,4.6343533 2.5292008,2.5487306 4.8467168,4.4806782 5.1500358,4.2932172 0.303318,-0.187461 0.819097,0.352213 1.146174,1.199277 0.327077,0.847064 1.345902,2.238651 2.264056,3.092416 1.576136,1.465604 1.779598,1.495298 3.643026,0.531682 1.903326,-0.984248 2.039762,-0.951616 3.828811,0.915748 1.723728,1.799184 1.79438,2.083091 0.997285,4.007448 -0.821065,1.982228 -0.747794,2.183811 1.70785,4.698619 1.411146,1.445145 2.754142,2.627536 2.984435,2.627536 0.230294,0 0.81537,-0.741155 1.30017,-1.647012 0.552911,-1.033125 2.023692,-2.023632 3.945987,-2.657452 2.68598,-0.885624 3.505394,-0.893258 6.633493,-0.06181 4.228678,1.123989 3.866194,0.829294 4.981086,4.049582 l 0.894298,2.583119 -3.813665,2.866784 c -2.097516,1.576733 -4.366239,2.866786 -5.041607,2.866786 -0.841383,0 0.652115,1.888807 4.74426,6 l 5.972201,6 H 25.83638 2.7005584 Z M 44.000001,45.829165 c 0,-0.09396 -9,-9.167083 -20,-20.162499 L 4.0000001,5.6750004 v 20.1624986 20.1625 H 24.000001 c 11,0 20,-0.07688 20,-0.170834 z M 41.810137,31.859668 c 1.387759,-1.177183 2.612798,-2.191783 2.72231,-2.254668 0.109511,-0.06289 0.01371,-0.853011 -0.212879,-1.755836 -0.327428,-1.304574 -1.067354,-1.792777 -3.604902,-2.378513 -4.124655,-0.952085 -7.37538,-0.01937 -8.842638,2.537181 -1.034673,1.802813 -1.009894,1.92826 0.694167,3.514351 3.35232,3.120245 5.855655,3.211639 9.243942,0.337485 z M 23.039539,19.936025 c 0.668198,-1.081167 -1.277295,-2.725434 -2.616625,-2.211485 -1.079592,0.414278 -1.080477,0.513864 -0.01503,1.691163 1.29259,1.428296 1.985796,1.565354 2.63166,0.520322 z m 4.960462,5.730641 c 0,-0.55 0.3,-1 0.666666,-1 0.366667,0 0.666667,0.45 0.666667,1 0,0.55 -0.3,1 -0.666667,1 -0.366666,0 -0.666666,-0.45 -0.666666,-1 z m 0,-5.251703 c 0,-3.978619 3.178639,-4.947057 4.770449,-1.453416 0.986884,2.165975 -0.197898,3.705119 -2.852079,3.705119 -1.734732,0 -1.91837,-0.215547 -1.91837,-2.251703 z m 2.90922,-0.744468 c -0.210247,-0.547894 -0.650831,-0.830189 -0.979077,-0.627322 -0.941282,0.581744 -0.695993,1.623493 0.382267,1.623493 0.594722,0 0.829011,-0.391065 0.59681,-0.996171 z m -4.90922,-4.003829 c 0,-0.611111 0.3225,-1.003611 0.716666,-0.872222 0.394167,0.131389 0.716667,0.523889 0.716667,0.872222 0,0.348334 -0.3225,0.740834 -0.716667,0.872222 -0.394166,0.13139 -0.716666,-0.26111 -0.716666,-0.872222 z M 16.127778,13.95 C 16.259167,13.555833 16.651667,13.233333 17,13.233333 c 0.348334,0 0.740834,0.3225 0.872222,0.716667 0.13139,0.394166 -0.26111,0.716666 -0.872222,0.716666 -0.611111,0 -1.003611,-0.3225 -0.872222,-0.716666 z"
     id="path817"
     inkscape:connector-curvature="0" />
</svg>
