<?xml version="1.0" encoding="UTF-8" standalone="no"?>
<!-- Created with Inkscape (http://www.inkscape.org/) -->

<svg
   xmlns:dc="http://purl.org/dc/elements/1.1/"
   xmlns:cc="http://creativecommons.org/ns#"
   xmlns:rdf="http://www.w3.org/1999/02/22-rdf-syntax-ns#"
   xmlns:svg="http://www.w3.org/2000/svg"
   xmlns="http://www.w3.org/2000/svg"
   xmlns:sodipodi="http://sodipodi.sourceforge.net/DTD/sodipodi-0.dtd"
   xmlns:inkscape="http://www.inkscape.org/namespaces/inkscape"
   version="1.1"
   id="svg2"
   width="60.666668"
   height="50"
   viewBox="0 0 60.666668 50"
   sodipodi:docname="BAI.svg"
   inkscape:version="0.92.3 (2405546, 2018-03-11)">
  <metadata
     id="metadata8">
    <rdf:RDF>
      <cc:Work
         rdf:about="">
        <dc:format>image/svg+xml</dc:format>
        <dc:type
           rdf:resource="http://purl.org/dc/dcmitype/StillImage" />
        <dc:title></dc:title>
      </cc:Work>
    </rdf:RDF>
  </metadata>
  <defs
     id="defs6" />
  <sodipodi:namedview
     pagecolor="#ffffff"
     bordercolor="#666666"
     borderopacity="1"
     objecttolerance="10"
     gridtolerance="10"
     guidetolerance="10"
     inkscape:pageopacity="0"
     inkscape:pageshadow="2"
     inkscape:window-width="1859"
     inkscape:window-height="1025"
     id="namedview4"
     showgrid="false"
     inkscape:zoom="4.72"
     inkscape:cx="30.333334"
     inkscape:cy="25"
     inkscape:window-x="61"
     inkscape:window-y="27"
     inkscape:window-maximized="1"
     inkscape:current-layer="svg2" />
  <path
     style="fill:#000000;stroke-width:0.66666669"
     d="M 7.0000002,43.684057 C 5.5333335,42.780713 3.8083334,42.03225 3.1666667,42.020807 2.1994917,42.003558 2,41.373026 2,38.333333 c 0,-3.384279 0.118383,-3.666666 1.5371469,-3.666666 0.8454309,0 2.5537148,0.75 3.7961866,1.666666 C 8.5758055,37.25 10.268215,38 11.094244,38 c 0.826028,0 2.912426,-0.75 4.63644,-1.666667 1.724012,-0.916666 3.767274,-1.666666 4.54058,-1.666666 0.773306,0 2.814883,0.75 4.536837,1.666666 3.85014,2.049588 4.664802,2.048232 8.858566,-0.01475 4.18539,-2.058864 5.025874,-2.051886 9.530466,0.07913 3.920268,1.854584 6.717673,1.822701 8.843105,-0.100788 0.620248,-0.561318 2.214934,-1.197008 3.543745,-1.412644 l 2.416018,-0.392065 v 3.441485 c 0,2.699911 -0.251394,3.516855 -1.166666,3.791263 -0.641667,0.192378 -2.614523,1.113116 -4.384125,2.046085 -3.706981,1.954393 -5.657334,1.86813 -10.956402,-0.484593 l -3.507192,-1.557152 -3.674244,1.802018 c -4.545181,2.229165 -6.19546,2.251129 -10.169937,0.135351 -3.87434,-2.06247 -4.485509,-2.063831 -7.808101,-0.01739 -3.394914,2.090984 -5.979255,2.100615 -9.3333338,0.03478 z M 15.666667,42 c 1.158928,-0.767528 3.121429,-1.324548 4.666667,-1.324548 1.545238,0 3.507739,0.55702 4.666667,1.324548 2.543283,1.68435 5.031734,1.68435 8.333333,0 1.437452,-0.733333 3.687452,-1.333333 5,-1.333333 1.312548,0 3.562548,0.6 5,1.333333 3.456462,1.763355 5.203542,1.682711 9.27181,-0.427981 2.624268,-1.36152 3.394857,-2.118144 3.394857,-3.333334 0,-1.93215 -0.380977,-1.947389 -3.333333,-0.133333 -3.056956,1.878326 -7.119946,1.880631 -10.153552,0.0057 -1.285438,-0.794418 -3.16634,-1.444418 -4.179782,-1.444418 -1.013442,0 -2.894343,0.65 -4.179781,1.444444 -3.033606,1.874872 -7.096596,1.872567 -10.153552,-0.0058 -3.026495,-1.859609 -4.567323,-1.810164 -8.464724,0.271633 -3.581319,1.912963 -5.7822788,1.820677 -8.8609629,-0.37154 -2.4374703,-1.735632 -3.3432388,-1.691797 -3.331386,0.161222 0.00696,1.087313 0.878183,1.99329 3.1666668,3.292972 C 10.308625,43.617195 12.986206,43.775199 15.666667,42 Z M 6.6666668,32.668911 C 5.3833335,31.969273 3.8083334,31.241969 3.1666667,31.052678 2.2376476,30.778619 2,29.957359 2,27.020923 c 0,-3.386722 0.1223838,-3.685662 1.5000001,-3.663966 0.825,0.01299 2.25,0.452362 3.1666667,0.976376 2.4548521,1.40332 6.4858062,1.220524 9.1306122,-0.414056 1.771215,-1.09467 3.013916,-1.344304 5.501972,-1.105233 l 3.213981,0.308823 -0.516761,-1.801842 C 23.210936,18.582027 22.15194,16.867623 20.963996,16.411766 19.21631,15.741116 18.666667,15.929704 18.666667,17.2 c 0,1.972571 -1.41678,2.8 -4.794351,2.8 C 11.39997,20 10.489758,19.698633 9.8452849,18.666667 9.1840669,17.607889 8.2906002,17.333333 5.5063023,17.333333 H 2 V 11 4.6666667 h 3.6217417 c 3.0362358,0 3.6901552,-0.2155522 4.0449252,-1.3333334 C 10.018822,2.2237909 10.675356,2 13.578259,2 c 3.598463,0 5.088408,0.7906413 5.088408,2.7001715 0,0.9057714 1.030749,1.176373 5.833334,1.5314193 3.208333,0.2371863 7.414319,0.8565345 9.346635,1.3763292 7.893594,2.123384 13.9182,7.259918 15.544334,13.252983 0.418718,1.54317 0.863866,3.170962 0.98922,3.617314 0.173349,0.617258 0.788417,0.577357 2.569116,-0.166666 1.287663,-0.53802 2.965811,-0.978218 3.729219,-0.978218 1.268494,0 1.370798,0.330086 1.188079,3.833334 -0.180183,3.454612 -0.355704,3.855372 -1.776584,4.056411 -0.867157,0.122693 -2.517157,0.796572 -3.666667,1.497508 -2.710289,1.652652 -6.842815,1.628383 -9.606132,-0.05641 -2.780329,-1.695168 -6.58874,-1.694131 -9.150554,0.0025 -2.593235,1.717432 -6.740098,1.717432 -9.333333,0 -2.554916,-1.692054 -5.711232,-1.692981 -8.483887,-0.0025 -2.721955,1.659577 -6.1440941,1.661342 -9.1827802,0.0047 z m 9.3234612,-2.095555 c 3.122769,-1.666611 5.419484,-1.561561 9.211708,0.421339 3.398943,1.777259 4.888547,1.681872 9.131498,-0.584736 2.643529,-1.412188 5.495656,-1.35633 8.343206,0.163397 4.218554,2.251428 5.048954,2.280611 9.305074,0.327009 3.513441,-1.612705 4.018387,-2.078366 4.018387,-3.705756 0,-2.145911 -0.30998,-2.220824 -3.563838,-0.861276 -3.210386,1.341385 -6.302168,1.25995 -9.112701,-0.240022 -4.232106,-2.258661 -5.098156,-2.296726 -9.106941,-0.400267 -4.116234,1.947291 -7.99646,1.978812 -10.101598,0.08206 -2.104563,-1.896234 -4.28006,-1.936182 -7.657075,-0.140606 -3.653954,1.942827 -6.147212,2.125071 -9.5606765,0.698834 -3.2496208,-1.357778 -3.5667003,-1.283248 -3.5453124,0.833334 0.015843,1.567848 0.5709487,2.097053 3.8333337,3.654475 4.0061942,1.912507 4.7989432,1.890198 8.8049352,-0.247785 z m 13.343206,-6.196623 c 0,-0.52613 -0.302146,-1.751305 -0.671436,-2.72261 -0.36929,-0.971306 -0.473497,-2.086284 -0.231571,-2.477728 0.655384,-1.060434 2.23634,1.418504 2.23634,3.50658 0,2.519943 0.488198,2.71069 3.05765,1.194677 2.292491,-1.352603 6.377277,-1.466082 9.109017,-0.253057 3.006022,1.33482 -0.626801,-4.359198 -4.641052,-7.274294 -3.053732,-2.217581 -3.489759,-3.016968 -1.645614,-3.016968 2.827318,0 9.453333,7.691487 9.453333,10.973442 0,0.599708 0.584461,1.026558 1.405605,1.026558 1.196754,0 1.339527,-0.272405 0.960886,-1.833333 C 47.548641,20.128452 45.249527,16.048005 43.192375,14.317027 38.537696,10.400372 30.897083,8.033978 22.833334,8.011576 L 18.666667,8 v 3 c 0,2.305555 0.246913,3 1.066667,3 1.900072,0 5.461891,4.231067 5.932696,7.047421 0.24082,1.440585 0.555065,2.994246 0.698323,3.452579 0.362058,1.158357 2.968981,1.050121 2.968981,-0.123267 z m 3.739994,-4.392008 c -1.171992,-2.65638 -3.515657,-4.762996 -6.239994,-5.608853 -0.825,-0.256147 -1.5,-0.727801 -1.5,-1.048119 0,-1.25039 1.228516,-1.212332 3.924593,0.12158 2.873186,1.42154 6.075407,5.286478 6.075407,7.332746 0,2.192368 -1.114413,1.799192 -2.260006,-0.797354 z M 16.333334,11 V 3.6666667 l -2.5,-0.2069102 -2.5,-0.2069102 V 11 18.747154 l 2.5,-0.206911 2.5,-0.20691 z M 9.1971269,10.833333 9.0000002,6.3333333 H 6.3333335 3.6666667 l -0.1971266,4.4999997 -0.1971266,4.5 h 3.06092 3.06092 z m -3.419349,2.722222 C 5.5333335,13.311111 5.3333335,12.111111 5.3333335,10.888889 c 0,-1.5308643 0.3111111,-2.2222223 1,-2.2222223 0.722222,0 1,0.7407406 1,2.6666663 0,2.502292 -0.5252,3.252578 -1.5555556,2.222222 z"
     id="path817"
     inkscape:connector-curvature="0" />
</svg>
