<?xml version="1.0" encoding="UTF-8" standalone="no"?>
<!-- Created with Inkscape (http://www.inkscape.org/) -->

<svg
   xmlns:dc="http://purl.org/dc/elements/1.1/"
   xmlns:cc="http://creativecommons.org/ns#"
   xmlns:rdf="http://www.w3.org/1999/02/22-rdf-syntax-ns#"
   xmlns:svg="http://www.w3.org/2000/svg"
   xmlns="http://www.w3.org/2000/svg"
   xmlns:sodipodi="http://sodipodi.sourceforge.net/DTD/sodipodi-0.dtd"
   xmlns:inkscape="http://www.inkscape.org/namespaces/inkscape"
   version="1.1"
   id="svg2"
   width="48"
   height="52.666668"
   viewBox="0 0 48 52.666668"
   sodipodi:docname="BAJ.svg"
   inkscape:version="0.92.3 (2405546, 2018-03-11)">
  <metadata
     id="metadata8">
    <rdf:RDF>
      <cc:Work
         rdf:about="">
        <dc:format>image/svg+xml</dc:format>
        <dc:type
           rdf:resource="http://purl.org/dc/dcmitype/StillImage" />
        <dc:title></dc:title>
      </cc:Work>
    </rdf:RDF>
  </metadata>
  <defs
     id="defs6" />
  <sodipodi:namedview
     pagecolor="#ffffff"
     bordercolor="#666666"
     borderopacity="1"
     objecttolerance="10"
     gridtolerance="10"
     guidetolerance="10"
     inkscape:pageopacity="0"
     inkscape:pageshadow="2"
     inkscape:window-width="1859"
     inkscape:window-height="1025"
     id="namedview4"
     showgrid="false"
     inkscape:zoom="4.4810126"
     inkscape:cx="24"
     inkscape:cy="26.333334"
     inkscape:window-x="61"
     inkscape:window-y="27"
     inkscape:window-maximized="1"
     inkscape:current-layer="svg2" />
  <path
     style="fill:#000000;stroke-width:0.66666669"
     d="m 26.666667,42.333334 -6.307,-6.333333 h 3.1535 3.1535 V 29.333334 22.666667 H 33.333333 40 v 6.666667 6.666667 h 3.1535 3.153499 L 40,42.333334 c -3.46885,3.483334 -6.46885,6.333334 -6.666667,6.333334 -0.197816,0 -3.197816,-2.85 -6.666666,-6.333334 z M 10,25.599538 V 18.532409 L 7,18.771008 C 5.35,18.902238 4,18.851521 4,18.658304 4,18.465086 6.85,15.46885 10.333333,12 L 16.666667,5.6930007 23,12 c 3.483333,3.46885 6.333333,6.465086 6.333333,6.658304 0,0.193217 -1.35,0.243934 -3,0.112704 l -3,-0.238599 v 7.067129 7.067129 H 16.666667 10 Z"
     id="path817"
     inkscape:connector-curvature="0" />
</svg>
