<?xml version="1.0" encoding="UTF-8" standalone="no"?>
<!-- Created with Inkscape (http://www.inkscape.org/) -->

<svg
   xmlns:dc="http://purl.org/dc/elements/1.1/"
   xmlns:cc="http://creativecommons.org/ns#"
   xmlns:rdf="http://www.w3.org/1999/02/22-rdf-syntax-ns#"
   xmlns:svg="http://www.w3.org/2000/svg"
   xmlns="http://www.w3.org/2000/svg"
   xmlns:sodipodi="http://sodipodi.sourceforge.net/DTD/sodipodi-0.dtd"
   xmlns:inkscape="http://www.inkscape.org/namespaces/inkscape"
   version="1.1"
   id="svg2"
   width="45.333332"
   height="48"
   viewBox="0 0 45.333332 48"
   sodipodi:docname="BBB.svg"
   inkscape:version="0.92.3 (2405546, 2018-03-11)">
  <metadata
     id="metadata8">
    <rdf:RDF>
      <cc:Work
         rdf:about="">
        <dc:format>image/svg+xml</dc:format>
        <dc:type
           rdf:resource="http://purl.org/dc/dcmitype/StillImage" />
        <dc:title></dc:title>
      </cc:Work>
    </rdf:RDF>
  </metadata>
  <defs
     id="defs6" />
  <sodipodi:namedview
     pagecolor="#ffffff"
     bordercolor="#666666"
     borderopacity="1"
     objecttolerance="10"
     gridtolerance="10"
     guidetolerance="10"
     inkscape:pageopacity="0"
     inkscape:pageshadow="2"
     inkscape:window-width="1859"
     inkscape:window-height="1025"
     id="namedview4"
     showgrid="false"
     inkscape:zoom="17.583333"
     inkscape:cx="22.666666"
     inkscape:cy="24"
     inkscape:window-x="61"
     inkscape:window-y="27"
     inkscape:window-maximized="1"
     inkscape:current-layer="svg2" />
  <path
     style="fill:#000000;stroke-width:0.66666669"
     d="M 11.194239,42.674395 C 5.5929294,40.985915 2.6666666,36.430503 2.6666666,29.399237 c 0,-2.559635 -0.3,-4.839291 -0.6666667,-5.065904 -0.3666666,-0.226612 -0.6666666,-1.756936 -0.6666666,-3.40072 v -2.988699 l 5.1666665,0.19471 5.1666662,0.194709 0.204999,2.833334 C 11.992955,22.843048 11.788787,24 11.371665,24 c -0.427863,0 -0.704999,1.819613 -0.704999,4.628864 0,4.027591 0.192464,4.763671 1.481671,5.666667 2.032755,1.423796 2.975152,1.308252 4.881966,-0.598561 1.597381,-1.597382 1.636363,-1.883883 1.636363,-12.026559 0,-9.034914 0.171949,-10.727244 1.318241,-12.9741597 3.638737,-7.132515 13.010941,-8.52393197 18.751052,-2.7838206 2.989629,2.9896293 3.922128,6.1053063 3.926988,13.1209023 0.0021,2.951667 0.324185,5.687134 0.715866,6.078814 0.391681,0.391682 0.616681,1.876682 0.5,3.3 L 43.666665,31 l -5.166666,0.194709 -5.166667,0.19471 v -2.988698 c 0,-1.643784 0.3,-3.174108 0.666667,-3.400721 0.366667,-0.226613 0.666667,-2.957954 0.666667,-6.069648 0,-5.155892 -0.148789,-5.806413 -1.677766,-7.335391 -1.234431,-1.23443 -2.071196,-1.557185 -3.166667,-1.221438 -3.049537,0.934643 -3.155388,1.321337 -3.159285,11.54144 -0.0043,11.441564 -0.622308,14.201259 -3.917851,17.496802 -3.301422,3.301422 -7.493821,4.485598 -11.550858,3.26263 z M 9.3890777,39.39864 C 7.7857738,38.166117 7.7848478,38.158137 9.1932691,37.711121 c 1.2711149,-0.403436 3.6859029,-0.201876 7.9268949,0.661652 1.11159,0.226336 1.503641,-0.05713 1.666667,-1.205076 0.139493,-0.982246 0.749212,-1.576968 1.764138,-1.720744 1.091112,-0.154568 1.432542,-0.528334 1.151543,-1.260603 -0.219685,-0.572489 0.04293,-1.716009 0.583585,-2.541155 0.541753,-0.82682 1.088442,-3.552775 1.217884,-6.072731 0.211427,-4.116051 0.247905,-3.952547 0.365445,1.63803 0.137649,6.547036 -0.227753,7.846597 -3.117551,11.087663 -1.725489,1.93523 -1.727604,1.949618 -0.140382,0.955318 3.40523,-2.133173 4.055173,-4.661701 4.055173,-15.77618 0,-12.979807 0.752178,-14.8106283 6.084828,-14.8106283 1.20885,0 2.610956,0.6351786 3.612142,1.6363633 1.508802,1.508803 1.636363,2.132436 1.636363,8 v 6.363637 h 2.394017 2.394016 l -0.22735,-6.953316 C 40.308847,10.011169 39.62745,8.4299293 35.272034,5.4405883 33.438883,4.1824046 32.378708,3.9390602 29.783671,4.1808317 c -3.984105,0.3711866 -6.340882,2.0306656 -8.283672,5.8327893 -1.360413,2.662388 -1.5,3.875652 -1.5,13.037733 0,9.210627 -0.12194,10.257189 -1.38172,11.85874 -1.386,1.762013 -4.336931,2.334337 -6.921745,1.342452 -1.827811,-0.701397 -3.0298676,-3.9791 -3.0298676,-8.261679 v -4.075345 l -2.1666666,0.208906 c -2.0736137,0.199933 -2.175332,0.343405 -2.3684343,3.340645 -0.2891118,4.487453 0.9819684,8.448461 3.5281656,10.994658 1.2138146,1.213815 2.4619349,2.200265 2.7736019,2.192112 C 10.745,40.643689 10.275085,40.079748 9.3890777,39.39864 Z M 35.333332,27.960655 c 0,-1.634244 -0.264046,-2.542822 -0.666666,-2.293988 -1.128916,0.697708 -0.74649,5 0.444444,5 0.122222,0 0.222222,-1.217706 0.222222,-2.706012 z M 36.470488,26.5 c -0.158902,-0.825 -0.288913,-0.15 -0.288913,1.5 0,1.65 0.130011,2.325 0.288913,1.5 0.158902,-0.825 0.158902,-2.175 0,-3 z m 1.333333,0 c -0.158902,-0.825 -0.288913,-0.15 -0.288913,1.5 0,1.65 0.130011,2.325 0.288913,1.5 0.158902,-0.825 0.158902,-2.175 0,-3 z m 2.196178,1.833333 C 39.999999,27.05 39.699999,26 39.333332,26 c -0.73925,0 -0.92451,3.519935 -0.222222,4.222222 0.767297,0.767298 0.888889,0.508917 0.888889,-1.888889 z M 41.137154,26.5 c -0.158902,-0.825 -0.288913,-0.15 -0.288913,1.5 0,1.65 0.130011,2.325 0.288913,1.5 0.158902,-0.825 0.158902,-2.175 0,-3 z m 1.333333,0 c -0.158902,-0.825 -0.288912,-0.15 -0.288912,1.5 0,1.65 0.13001,2.325 0.288912,1.5 0.158902,-0.825 0.158902,-2.175 0,-3 z M 3.3333332,21 c 0,-1.283333 -0.3,-2.333333 -0.6666666,-2.333333 -0.3666667,0 -0.6666667,1.05 -0.6666667,2.333333 0,1.283333 0.3,2.333333 0.6666667,2.333333 0.3666666,0 0.6666666,-1.05 0.6666666,-2.333333 z M 4.4715071,19.841106 C 4.3120449,19.011831 4.1755217,19.533333 4.1681221,21 c -0.0074,1.466667 0.1230695,2.145165 0.2899312,1.507773 0.1668618,-0.637392 0.172916,-1.837392 0.013454,-2.666667 z m 1.3333333,0 C 5.6453782,19.011831 5.508855,19.533333 5.5014554,21 c -0.0074,1.466667 0.1230695,2.145165 0.2899312,1.507773 0.1668618,-0.637392 0.172916,-1.837392 0.013454,-2.666667 z m 3.5284927,1.300763 c 0,-1.71354 -0.2907787,-2.213367 -1.3333333,-2.2919 -1.0942507,-0.08243 -1.3333333,0.310528 -1.3333333,2.191464 0,1.847456 0.2585593,2.2919 1.3333333,2.2919 1.0629239,0 1.3333333,-0.444444 1.3333333,-2.191464 z M 10.471507,19.841106 C 10.312045,19.011831 10.175522,19.533333 10.168122,21 c -0.0074,1.466667 0.12307,2.145165 0.289931,1.507773 0.166862,-0.637392 0.172916,-1.837392 0.01345,-2.666667 z"
     id="path821"
     inkscape:connector-curvature="0" />
</svg>
