<?xml version="1.0" encoding="UTF-8" standalone="no"?>
<!-- Created with Inkscape (http://www.inkscape.org/) -->

<svg
   xmlns:dc="http://purl.org/dc/elements/1.1/"
   xmlns:cc="http://creativecommons.org/ns#"
   xmlns:rdf="http://www.w3.org/1999/02/22-rdf-syntax-ns#"
   xmlns:svg="http://www.w3.org/2000/svg"
   xmlns="http://www.w3.org/2000/svg"
   xmlns:sodipodi="http://sodipodi.sourceforge.net/DTD/sodipodi-0.dtd"
   xmlns:inkscape="http://www.inkscape.org/namespaces/inkscape"
   version="1.1"
   id="svg2"
   width="46"
   height="45.333332"
   viewBox="0 0 46 45.333332"
   sodipodi:docname="BBE.svg"
   inkscape:version="0.92.3 (2405546, 2018-03-11)">
  <metadata
     id="metadata8">
    <rdf:RDF>
      <cc:Work
         rdf:about="">
        <dc:format>image/svg+xml</dc:format>
        <dc:type
           rdf:resource="http://purl.org/dc/dcmitype/StillImage" />
        <dc:title></dc:title>
      </cc:Work>
    </rdf:RDF>
  </metadata>
  <defs
     id="defs6" />
  <sodipodi:namedview
     pagecolor="#ffffff"
     bordercolor="#666666"
     borderopacity="1"
     objecttolerance="10"
     gridtolerance="10"
     guidetolerance="10"
     inkscape:pageopacity="0"
     inkscape:pageshadow="2"
     inkscape:window-width="1859"
     inkscape:window-height="1025"
     id="namedview4"
     showgrid="false"
     inkscape:zoom="5.2058825"
     inkscape:cx="23"
     inkscape:cy="22.666666"
     inkscape:window-x="61"
     inkscape:window-y="27"
     inkscape:window-maximized="1"
     inkscape:current-layer="svg2" />
  <path
     style="fill:#000000;stroke-width:0.66666669"
     d="M 0.99708993,43.99529 C 0.60674681,43.363701 0.92834913,43.156199 3.3033416,42.507259 3.8368462,42.361485 4.8868462,40.312717 5.6366749,37.954441 L 7,33.666666 h 15.60231 15.60231 l 1.39769,4.333333 c 1.118015,3.466243 1.697837,4.37596 2.89769,4.546367 0.825,0.117169 1.5,0.642169 1.5,1.166667 0,0.807162 -3.270599,0.953632 -21.293989,0.953632 -13.5764263,0 -21.4443721,-0.243326 -21.70892107,-0.671375 z M 10.666667,30.766148 c 0,-0.311952 0.329347,-1.511952 0.731883,-2.666667 l 0.731883,-2.099482 h 10.529178 10.529178 l 0.402762,1.604733 c 0.22152,0.882603 0.586139,2.082603 0.810265,2.666666 0.363541,0.947373 -0.894753,1.061934 -11.663823,1.061934 -6.63923,0 -12.071326,-0.255233 -12.071326,-0.567184 z m 2.666666,-8.389415 c 0,-0.526131 0.292575,-1.726131 0.650166,-2.666667 0.647752,-1.703717 0.679691,-1.710067 8.60145,-1.710067 h 7.951284 l 0.731884,2.099482 C 31.670653,21.254197 32,22.454197 32,22.766148 c 0,0.311951 -4.2,0.567185 -9.333333,0.567185 -7.663656,0 -9.333334,-0.17113 -9.333334,-0.9566 z m 2.713204,-9.205665 c 0.341072,-1.189246 0.62013,-2.239246 0.62013,-2.333334 0,-0.09409 2.7,-0.171068 6,-0.171068 4.3507,0 6.002502,0.22907 6.009103,0.833334 0.005,0.458333 0.189996,1.508333 0.411087,2.333333 0.398273,1.48615 0.337062,1.5 -6.629232,1.5 h -7.031218 z m 2.219846,-6.8083327 c 1.13015,-4.5028733 1.582528,-5.029402 4.321115,-5.029402 2.524678,0 2.659357,0.1140405 3.683167,3.1187591 0.584468,1.7153176 1.062668,3.2153174 1.062668,3.3333334 0,0.1180153 -2.132522,0.214574 -4.738938,0.214574 -4.699278,0 -4.7355,-0.013703 -4.328012,-1.6372645 z"
     id="path817"
     inkscape:connector-curvature="0" />
</svg>
