<?xml version="1.0" encoding="UTF-8" standalone="no"?>
<!-- Created with Inkscape (http://www.inkscape.org/) -->

<svg
   xmlns:dc="http://purl.org/dc/elements/1.1/"
   xmlns:cc="http://creativecommons.org/ns#"
   xmlns:rdf="http://www.w3.org/1999/02/22-rdf-syntax-ns#"
   xmlns:svg="http://www.w3.org/2000/svg"
   xmlns="http://www.w3.org/2000/svg"
   xmlns:sodipodi="http://sodipodi.sourceforge.net/DTD/sodipodi-0.dtd"
   xmlns:inkscape="http://www.inkscape.org/namespaces/inkscape"
   version="1.1"
   id="svg2"
   width="56.666668"
   height="52"
   viewBox="0 0 56.666668 52"
   sodipodi:docname="BCB.svg"
   inkscape:version="0.92.3 (2405546, 2018-03-11)">
  <metadata
     id="metadata8">
    <rdf:RDF>
      <cc:Work
         rdf:about="">
        <dc:format>image/svg+xml</dc:format>
        <dc:type
           rdf:resource="http://purl.org/dc/dcmitype/StillImage" />
        <dc:title></dc:title>
      </cc:Work>
    </rdf:RDF>
  </metadata>
  <defs
     id="defs6" />
  <sodipodi:namedview
     pagecolor="#ffffff"
     bordercolor="#666666"
     borderopacity="1"
     objecttolerance="10"
     gridtolerance="10"
     guidetolerance="10"
     inkscape:pageopacity="0"
     inkscape:pageshadow="2"
     inkscape:window-width="1859"
     inkscape:window-height="1025"
     id="namedview4"
     showgrid="false"
     inkscape:zoom="4.5384615"
     inkscape:cx="28.333334"
     inkscape:cy="26"
     inkscape:window-x="61"
     inkscape:window-y="27"
     inkscape:window-maximized="1"
     inkscape:current-layer="svg2" />
  <path
     style="fill:#000000;stroke-width:0.66666669"
     d="M 34.35541,36.022095 C 21.931055,23.587165 20.20232,22.088429 18.694696,22.444967 c -2.645818,0.625709 -4.188809,2.224688 -3.244626,3.362358 0.619506,0.74646 0.357602,1.359363 -1.281149,2.998113 L 12.109078,30.865281 8.6345202,27.550786 C 5.5293975,24.588707 5.241688,24.083586 5.9285937,22.800091 6.9812308,20.83322 9.2574222,19.657422 10.195804,20.595804 c 0.951827,0.951827 3.13753,-0.980906 3.13753,-2.774398 0,-0.73202 2.132765,-3.438043 4.8562,-6.161477 5.170685,-5.1706853 8.975237,-6.9932623 14.598134,-6.9932623 3.083584,0 3.222192,0.646223 0.485369,2.262904 -3.794798,2.241642 -6.567995,5.1584503 -7.249838,7.6252733 L 25.347345,17 39.34034,31.005684 C 53.620771,45.299066 54.803366,46.929969 52.533335,49.2 50.251367,51.481968 48.62181,50.300638 34.35541,36.022095 Z M 51.838769,47.325677 C 51.943453,46.77138 45.844382,40.159936 38.022024,32.348211 24.712057,19.056337 23.960327,18.420626 22.857143,19.523809 c -1.103183,1.103184 -0.467472,1.854914 12.824402,15.16488 7.811725,7.822358 14.42317,13.92143 14.977467,13.816746 0.54579,-0.103077 1.076681,-0.633968 1.179757,-1.179758 z m -38.260081,-21.7722 c -0.496991,-1.980167 1.92316,-4.88681 4.06889,-4.88681 1.819048,0 6.120938,-4.424848 6.737258,-6.929823 0.261145,-1.061403 1.63139,-3.086403 3.044987,-4.5 2.795702,-2.7957017 2.523608,-3.1221538 -1.284568,-1.541196 -2.884208,1.197374 -10.811921,8.769549 -10.811921,10.327032 0,1.652869 -3.72569,4.891901 -5.0447,4.385749 -0.6183644,-0.237288 -1.5500911,-0.07806 -2.0705045,0.353849 -0.791932,0.657245 -0.5413973,1.199844 1.5365947,3.327901 1.8925168,1.938113 2.6907828,2.37001 3.3575948,1.816605 0.529043,-0.439067 0.713369,-1.36918 0.466369,-2.353307 z"
     id="path817"
     inkscape:connector-curvature="0" />
</svg>
