<?xml version="1.0" encoding="UTF-8" standalone="no"?>
<!-- Created with Inkscape (http://www.inkscape.org/) -->

<svg
   xmlns:dc="http://purl.org/dc/elements/1.1/"
   xmlns:cc="http://creativecommons.org/ns#"
   xmlns:rdf="http://www.w3.org/1999/02/22-rdf-syntax-ns#"
   xmlns:svg="http://www.w3.org/2000/svg"
   xmlns="http://www.w3.org/2000/svg"
   xmlns:sodipodi="http://sodipodi.sourceforge.net/DTD/sodipodi-0.dtd"
   xmlns:inkscape="http://www.inkscape.org/namespaces/inkscape"
   version="1.1"
   id="svg2"
   width="53.333332"
   height="44.666668"
   viewBox="0 0 53.333332 44.666668"
   sodipodi:docname="BDC.svg"
   inkscape:version="0.92.3 (2405546, 2018-03-11)">
  <metadata
     id="metadata8">
    <rdf:RDF>
      <cc:Work
         rdf:about="">
        <dc:format>image/svg+xml</dc:format>
        <dc:type
           rdf:resource="http://purl.org/dc/dcmitype/StillImage" />
        <dc:title></dc:title>
      </cc:Work>
    </rdf:RDF>
  </metadata>
  <defs
     id="defs6" />
  <sodipodi:namedview
     pagecolor="#ffffff"
     bordercolor="#666666"
     borderopacity="1"
     objecttolerance="10"
     gridtolerance="10"
     guidetolerance="10"
     inkscape:pageopacity="0"
     inkscape:pageshadow="2"
     inkscape:window-width="1859"
     inkscape:window-height="1025"
     id="namedview4"
     showgrid="false"
     inkscape:zoom="5.2835819"
     inkscape:cx="26.666666"
     inkscape:cy="22.333334"
     inkscape:window-x="61"
     inkscape:window-y="27"
     inkscape:window-maximized="1"
     inkscape:current-layer="svg2" />
  <path
     style="fill:#000000;stroke-width:0.66666669"
     d="M 0,22.000001 V 2.0000001 h 15.851662 c 19.50732,0 18.815004,-0.271228 18.815004,7.3711362 0,2.9125417 0.192831,5.2955307 0.428513,5.2955307 0.235683,0 3.253265,-2.775 6.705739,-6.1666667 3.452474,-3.3916668 6.784643,-6.1666669 7.404819,-6.1666669 1.033533,0 1.127595,1.6405596 1.127595,19.6666676 0,17.922744 -0.09867,19.666667 -1.112757,19.666667 -0.612016,0 -3.966181,-2.775 -7.453699,-6.166667 -3.48752,-3.391667 -6.511779,-6.166667 -6.720577,-6.166667 -0.208799,0 -0.379633,2.382989 -0.379633,5.295531 0,7.642364 0.692316,7.371136 -18.815004,7.371136 H 0 Z"
     id="path817"
     inkscape:connector-curvature="0" />
</svg>
