<?xml version="1.0" encoding="UTF-8"?>
<svg width="50" height="50" version="1.1" viewBox="0 0 50 50" xmlns="http://www.w3.org/2000/svg"><g transform="matrix(.08793 0 0 .1054 2.86 -1.539)"><path fill="param(fill) #000000" d="m486.8 159.5h-33.57c-9.258 0-16.79 7.529-16.79 16.79v8.393h-75.35c-24.43 0-47.93-5.321-67.92-15.38-25.85-13-56.92-13-82.78 0-19.99 10.06-43.49 15.38-67.92 15.38h-75.35v-8.393c0-9.258-7.529-16.79-16.79-16.79h-33.57c-9.258 0-16.79 7.529-16.79 16.79v151.1c0 9.258 7.529 16.79 16.79 16.79h33.57c9.258 0 16.79-7.529 16.79-16.79v-8.393h75.35c24.43 0 47.93 5.321 67.92 15.38 12.93 6.497 26.85 9.795 41.39 9.795s28.46-3.299 41.39-9.795c19.99-10.06 43.49-15.38 67.92-15.38h75.35v8.393c0 9.258 7.529 16.79 16.79 16.79h33.57c9.258 0 16.79-7.529 16.79-16.79v-151.1c-1e-3 -9.258-7.53-16.79-16.79-16.79zm-436.5 167.9h-33.58v-151.1h33.57v134.3c0 0.017 8e-3 0.034 8e-3 0.05zm109.8-93.06c-5.783 0.487-11.73 0.73-17.68 0.73h-50.17c-4.633 0-8.393-3.752-8.393-8.393 0-4.642 3.76-8.393 8.393-8.393h50.17c5.481 0 10.96-0.218 16.28-0.663 4.65-0.478 8.679 3.038 9.065 7.663 0.377 4.624-3.056 8.678-7.672 9.056zm158.5-11.91c-1.158 4.49-5.741 7.227-10.22 6.026-13.32-3.433-26.06-8.2-37.87-14.14-11.66-5.867-25.84-5.867-37.5 0-11.84 5.951-24.59 10.72-37.9 14.15-0.705 0.185-1.41 0.269-2.098 0.269-3.743 0-7.151-2.51-8.125-6.295-1.158-4.49 1.536-9.065 6.026-10.22 12.16-3.139 23.79-7.479 34.56-12.9 16.38-8.242 36.21-8.242 52.6 0 10.74 5.414 22.35 9.745 34.51 12.89 4.481 1.159 7.184 5.742 6.026 10.22zm59.06 12.64h-16.59c-5.951 0-11.89-0.243-17.68-0.73-4.625-0.378-8.058-4.432-7.672-9.057 0.378-4.625 4.415-8.15 9.065-7.663 5.321 0.445 10.8 0.663 16.28 0.663h16.59c4.633 0 8.393 3.752 8.393 8.393 1e-3 4.642-3.759 8.394-8.392 8.394zm58.75 0h-33.57c-4.633 0-8.393-3.752-8.393-8.393 0-4.642 3.76-8.393 8.393-8.393h33.57zm16.79 92.33v-151.1h33.57l8e-3 151.1z"/><path fill="param(fill) #000000"  d="m251.8 134.3c4.633 0 8.393-3.752 8.393-8.393v-33.57c0-4.642-3.76-8.393-8.393-8.393s-8.393 3.752-8.393 8.393v33.57c0 4.641 3.76 8.393 8.393 8.393z"/><path fill="param(fill) #000000"  d="m251.8 369.3c-4.633 0-8.393 3.752-8.393 8.393v33.57c0 4.642 3.76 8.393 8.393 8.393s8.393-3.752 8.393-8.393v-33.57c1e-3 -4.641-3.76-8.393-8.393-8.393z"/><path fill="param(fill) #000000"  d="m344.1 167.9c2.149 0 4.297-0.823 5.934-2.459l24.64-24.64c3.282-3.273 3.282-8.586 0-11.87-3.282-3.273-8.587-3.273-11.87 0l-24.64 24.64c-3.282 3.282-3.282 8.586 0 11.87 1.637 1.636 3.785 2.459 5.934 2.459z"/><path fill="param(fill) #000000"  d="m153.5 338.2-23.74 23.74c-3.273 3.282-3.273 8.595 0 11.87 1.645 1.637 3.794 2.459 5.934 2.459 2.149 0 4.297-0.823 5.934-2.459l23.74-23.74c3.282-3.282 3.282-8.586 0-11.87-3.281-3.282-8.586-3.282-11.87 0z"/><path fill="param(fill) #000000"  d="m154.4 165.4c1.637 1.637 3.785 2.459 5.934 2.459s4.297-0.823 5.934-2.459c3.282-3.282 3.282-8.586 0-11.87l-24.64-24.64c-3.282-3.273-8.586-3.273-11.87 0-3.282 3.282-3.282 8.595 0 11.87z"/><path fill="param(fill) #000000"  d="m351 338.2c-3.282-3.282-8.586-3.282-11.87 0s-3.282 8.586 0 11.87l23.74 23.74c1.637 1.637 3.785 2.459 5.934 2.459 2.14 0 4.289-0.823 5.934-2.459 3.273-3.273 3.273-8.586 0-11.87z"/></g></svg>
