<?xml version="1.0" encoding="UTF-8"?>
<svg width="50" height="50" version="1.1" viewBox="0 0 50 50" xmlns="http://www.w3.org/2000/svg"><path d="m3.064 47.74c-1.007-0.5899-1.092-2.312-1.092-22.02 0-15.81 0.1951-21.58 0.7488-22.12 0.508-0.5009 3.442-0.7384 9.123-0.7384h8.374l-3.182 4.114 2.451 3.635c1.348 1.999 2.452 3.903 2.453 4.231 0.001123 0.3278-1.369 1.989-3.045 3.692l-3.047 3.096 5.636 11.24c3.1 6.182 5.729 11.15 5.843 11.04 0.1135-0.1119-0.6247-4.34-1.64-9.395-1.016-5.055-1.853-9.822-1.859-10.59-0.01015-1.132 0.7189-1.715 3.782-3.025 3.644-1.558 3.781-1.698 3.464-3.521-1.398-8.027-1.493-7.538 2.158-11.18l3.334-3.329h5.045c3.092 0 5.335 0.2859 5.794 0.7384 0.9318 0.9188 1.063 42.12 0.1385 43.57-0.5037 0.7863-3.76 0.9449-21.99 1.071-13.97 0.09652-21.78-0.07439-22.49-0.4921z" fill="param(fill) #000000" stroke-width=".6"/></svg>
