<?xml version="1.0" encoding="UTF-8"?>
<svg width="50" height="50" version="1.1" viewBox="0 0 50 50" xmlns="http://www.w3.org/2000/svg"><path fill="param(fill) #000000" d="m25 7.309c-0.4074 0-0.7363 0.3956-0.7363 0.8848v3.539c0 0.4892 0.3289 0.8848 0.7363 0.8848s0.7383-0.3956 0.7383-0.8848v-3.539c0-0.4893-0.3309-0.8848-0.7383-0.8848zm-10.21 4.479c-0.1888 0-0.3771 0.08728-0.5215 0.2598-0.2886 0.3459-0.2886 0.9048 0 1.25l2.166 2.598c0.1439 0.1725 0.3345 0.2598 0.5234 0.2598s0.3775-0.08733 0.5215-0.2598c0.2886-0.3459 0.2886-0.9058 0-1.252l-2.168-2.596c-0.1443-0.1725-0.3327-0.2598-0.5215-0.2598zm20.49 0.003906c-0.1888 0-0.3771 0.08728-0.5215 0.2598l-2.166 2.596c-0.2886 0.3459-0.2886 0.9058 0 1.252 0.1439 0.1724 0.3325 0.2598 0.5215 0.2598s0.3775-0.08733 0.5215-0.2598l2.166-2.598c0.2886-0.345 0.2886-0.9039 0-1.25-0.1443-0.1725-0.3327-0.2598-0.5215-0.2598zm-30.95 3.48c-0.8141 0-1.477 0.7934-1.477 1.77v15.93c0 0.9758 0.6622 1.77 1.477 1.77h2.951c0.8141 0 1.477-0.7934 1.477-1.77v-0.8848h6.625 5.703l-1.074-0.916 1.227-1.438-0.8066-0.9492 4.797-4.076-5.217-4.451 2.027-2.375c-2.873-0.007461-5.419-0.004614-6.656 0.04688-2.975 0.1238-6.625 0-6.625 0v-0.8848c0-0.9758-0.6622-1.77-1.477-1.77h-2.951zm38.38 0c-0.8141 0-1.477 0.7934-1.477 1.77v0.8848h-6.625c-1.766 0-3.936-0.01436-6.008-0.02539l-2.033 2.096 4.473 3.818-0.3945 0.4629 0.8223 0.9668-5.783 4.912 2.262 1.928h6.662 6.625v0.8848c0 0.9758 0.6622 1.77 1.477 1.77h2.951c0.8141 0 1.477-0.7934 1.477-1.77v-15.93c-8.793e-5 -0.9758-0.6623-1.77-1.477-1.77h-2.951zm-38.38 1.771h2.951v14.15c0 0.001792 0.001953 0.004173 0.001953 0.005859v1.766h-2.953v-15.93zm38.38 0h2.953v15.93h-2.953v-15.93zm-25.89 4.355c0.4089-0.05038 0.7629 0.3192 0.7969 0.8066 0.03315 0.4874-0.2679 0.9152-0.6738 0.9551-0.5085 0.05133-1.032 0.07812-1.555 0.07812h-4.412c-0.4074 0-0.7363-0.3956-0.7363-0.8848 0-0.4893 0.3289-0.8848 0.7363-0.8848h4.412c0.4819 0 0.9639-0.02341 1.432-0.07031zm16.36 0c0.4679 0.0469 0.9478 0.07031 1.43 0.07031h1.459c0.4074 0 0.7383 0.3956 0.7383 0.8848 8.779e-5 0.4885-0.3318 0.8835-0.7383 0.8848h-1.457c-0.5233 0-1.046-0.0268-1.555-0.07812-0.4067-0.03984-0.7097-0.4676-0.6758-0.9551 0.03324-0.4875 0.39-0.858 0.7988-0.8066zm5.104 0.07031h2.953v1.77h-2.953c-0.4074 0-0.7383-0.3956-0.7383-0.8848 0-0.4893 0.3309-0.8848 0.7383-0.8848zm-14.35 10.93c-0.309-0.02378-0.5477 0.05225-0.6406 0.2344l-1.344 2.635c-0.1859 0.3643 0.2782 1.013 1.035 1.449s1.521 0.4951 1.707 0.1309l1.346-2.635c0.1861-0.3641-0.2801-1.013-1.037-1.449-0.3785-0.2179-0.7574-0.3415-1.066-0.3652zm-7.057 1.447c-0.1888 0-0.3771 0.0868-0.5215 0.2598l-2.088 2.502c-0.2878 0.3459-0.2878 0.9068 0 1.252 0.1446 0.1725 0.3333 0.2578 0.5215 0.2578 0.189 0 0.3775-0.08538 0.5215-0.2578l2.088-2.504c0.2886-0.3459 0.2886-0.9039 0-1.25-0.1442-0.173-0.3327-0.2598-0.5215-0.2598zm16.32 0c-0.1888 0-0.3771 0.0868-0.5215 0.2598-0.2888 0.3459-0.2886 0.9039 0 1.25l2.088 2.504c0.1439 0.1725 0.3325 0.2578 0.5215 0.2578 0.1882 0 0.3768-0.08538 0.5215-0.2578 0.2878-0.345 0.2878-0.9058 0-1.252l-2.088-2.502c-0.1443-0.173-0.3327-0.2598-0.5215-0.2598zm-5.66 1.691c-0.4421-0.02331-1.074 0.5377-1.508 1.377-0.4961 0.9592-0.5478 1.92-0.1133 2.145l3.143 1.625c0.4346 0.2248 1.188-0.3709 1.684-1.33 0.4961-0.9592 0.5478-1.92 0.1133-2.145l-3.143-1.625c-0.0543-0.02812-0.1126-0.04355-0.1758-0.04688zm-7.27 1.559c-0.7311 0.05059-1.235 0.3484-1.219 0.7871l0.1582 4.232c0.02196 0.5851 0.9599 1.194 2.094 1.363 1.134 0.1689 2.038-0.167 2.016-0.752l-0.1602-4.23c-0.02171-0.5849-0.9599-1.196-2.094-1.365-0.2835-0.04224-0.5512-0.05202-0.7949-0.03516zm7.014 3.717c-0.3874-0.02985-0.881 0.04464-1.389 0.2285-1.015 0.3678-1.704 1.038-1.537 1.498l1.205 3.326c0.1666 0.46 1.125 0.5338 2.141 0.166 1.015-0.3678 1.704-1.038 1.537-1.498l-1.205-3.326c-0.08318-0.23-0.3645-0.3647-0.752-0.3945z" stroke-width=".1"/></svg>
