<?xml version="1.0" encoding="UTF-8"?>
<svg width="50" height="50" version="1.1" viewBox="0 0 50 50" xmlns="http://www.w3.org/2000/svg"><path d="m1.844 43.9v-2.996l7.752 0.433 0.3104 5.559h-8.062zm9.002 0.03118v-2.965h8.002v5.93h-8.002zm9.197 1.907c-0.1506-0.5819-0.1998-1.833-0.1093-2.78 0.155-1.622 0.4039-1.734 4.29-1.937l4.126-0.2153v5.99h-4.017c-3.018 0-4.085-0.263-4.29-1.058zm9.402-1.722 0.1552-2.78 8.252-0.4306v5.99h-8.562zm9.502 0 0.1552-2.78h7.435l0.09599 5.559h-7.841l0.1552-2.78zm-2.253-7.602-3.347-3.755 1.106-2.217c0.6083-1.219 1.397-2.051 1.753-1.849 0.9771 0.5558 6.149 6.453 6.128 6.988-0.009895 0.2568-0.5301 1.394-1.156 2.527l-1.138 2.061zm6.388-1.189-2.359-4.899 1.44-1.745c0.7918-0.9598 1.552-1.744 1.69-1.743 0.3167 0.00278 3.134 5.679 3.962 7.983 0.544 1.513 0.4787 1.968-0.5055 3.521-0.6216 0.9808-1.296 1.783-1.499 1.783-0.203 0-1.431-2.205-2.728-4.899zm-41.24 1.193c0-2.8 0.08335-2.965 1.5-2.965s1.5 0.1647 1.5 2.965c0 2.8-0.08335 2.965-1.5 2.965s-1.5-0.1647-1.5-2.965zm4.001 0v-2.965h8.502v5.93h-8.502zm9.502 0v-2.965h8.502v5.93h-8.502zm9.502 0v-2.965h8.502v5.93h-8.502zm-2.401-4.498c-0.9079-0.2856-1.743-0.6558-1.856-0.8228-0.4962-0.7354 0.4506-3.574 1.189-3.564 1.72 0.02131 3.067 0.9521 3.06 2.115-0.01383 2.185-0.6747 2.813-2.393 2.272zm5.711-1.032c-0.4452-1.007-0.8095-2.272-0.8095-2.811 0-0.539 1.498-2.257 3.33-3.819l3.33-2.839 0.9101 1.754c1.592 3.068 1.458 3.375-3.134 7.2l-2.816 2.345zm-26.32-1.852v-2.996h8.062l-0.3104 5.559-7.752 0.433zm9.002-0.03118v-2.965h8.002v5.93h-8.002zm-9.002-7.413c0-2.8 0.08335-2.965 1.5-2.965s1.5 0.1647 1.5 2.965c0 2.8-0.08335 2.965-1.5 2.965s-1.5-0.1647-1.5-2.965zm4.334 2.471c-0.1834-0.2718-0.3334-1.606-0.3334-2.965v-2.471h8.502v5.93h-3.918c-2.155 0-4.068-0.2224-4.251-0.4942zm9.169-2.441v-2.995h8.562l-0.3104 5.559-8.252 0.4306zm-13.5-7.813v-3.398l7.752 0.433v5.93l-7.752 0.433zm9.002 0v-3.336h8.002v6.671h-8.002zm9.199 2.286c-0.1494-0.5771-0.1986-1.995-0.1093-3.15 0.1621-2.098 0.1687-2.101 4.288-2.316l4.126-0.2153v6.731h-4.017c-3.002 0-4.085-0.2649-4.288-1.049zm-18.2-10.07c0-2.8 0.08335-2.965 1.5-2.965s1.5 0.1647 1.5 2.965c0 2.8-0.08335 2.965-1.5 2.965s-1.5-0.1647-1.5-2.965zm4.096 0.1853 0.1552-2.78 8.252-0.4306v5.99h-8.562zm9.502 0 0.1552-2.78h8.002l0.3104 5.559h-8.623z" fill="param(fill) #000000" stroke-width=".6"/></svg>
