<?xml version="1.0" encoding="UTF-8"?>
<svg width="50" height="50" version="1.1" viewBox="0 0 50 50" xmlns="http://www.w3.org/2000/svg"><path d="m1.795 25c-0.101-12.65-0.02557-23 0.1676-23 0.1932 1.636e-4 2.421 2.086 4.95 4.634 2.529 2.549 4.847 4.481 5.15 4.293 0.3033-0.1875 0.9036 2.074 1.146 1.199 0.4316-1.557 0.9278 4.538 1.846 5.392 1.576 1.466 2.198-0.8041 4.061-1.768 1.903-0.9842 2.04-0.9516 3.829 0.9157 1.724 1.799 1.794 2.083 0.9973 4.007-0.8211 1.982-4.511 1.87-2.055 4.385 1.411 1.445 7.248 8.272 6.747 2.941-0.02156-0.2293 0.8154-0.7412 1.3-1.647 0.5529-1.033 2.024-2.024 3.946-2.657 2.686-0.8856 3.505-0.8933 6.633-0.06181 4.229 1.124 3.866 0.8293 4.981 4.05l0.8943 2.583-3.814 2.867c-2.098 1.577-7.606 3.076-8.282 3.076-0.8414 0 4.74-0.6463 8.193 4.014l5.763 7.777h-46.27zm41.48 20.83c0-0.03469-2.418-5.843-6.533-6.397-6.54-0.8799-17.02-10.27-23.61-17.53-6.715-7.399-9.025-13.2-9.025-13.2l0.3136 17.34v19.01l19.58 0.1045c11 0.05871 19.27 0.7593 19.27 0.6653zm-2.19-13.97c1.388-1.177 2.613-2.192 2.722-2.255 0.1095-0.06289-1.136-0.9575-1.363-1.86-0.3274-1.305-1.59-1.688-4.128-2.274-4.125-0.9521-5.703-0.01937-7.17 2.537-1.035 1.803-1.01 1.928 0.6942 3.514 3.352 3.12 5.856 3.212 9.244 0.3375zm-18.77-11.92c0.6682-1.081-1.277-2.725-2.617-2.211-1.08 0.4143-1.08 0.5139-0.01503 1.691 1.293 1.428 1.986 1.565 2.632 0.5203zm4.96 5.731c0-0.55 0.3-1 0.6667-1 0.3667 0 0.6667 0.45 0.6667 1s-0.3 1-0.6667 1c-0.3667 0-0.6667-0.45-0.6667-1zm0-5.252c0-3.979 3.179-4.947 4.77-1.453 0.9869 2.166-0.1979 3.705-2.852 3.705-1.735 0-1.918-0.2155-1.918-2.252zm2.909-0.7445c-0.2102-0.5479-0.6508-0.8302-0.9791-0.6273-0.9413 0.5817-0.696 1.623 0.3823 1.623 0.5947 0 0.829-0.3911 0.5968-0.9962zm-4.909-4.004c0-0.6111 0.3225-1.004 0.7167-0.8722 0.3942 0.1314 0.7167 0.5239 0.7167 0.8722 0 0.3483-0.3225 0.7408-0.7167 0.8722-0.3942 0.1314-0.7167-0.2611-0.7167-0.8722zm-9.872-1.717c0.1314-0.3942 0.5239-0.7167 0.8722-0.7167 0.3483 0 0.7408 0.3225 0.8722 0.7167 0.1314 0.3942-0.2611 0.7167-0.8722 0.7167-0.6111 0-1.004-0.3225-0.8722-0.7167z" fill="param(fill) #000000" stroke-width=".6"/></svg>
