<?xml version="1.0" encoding="UTF-8" standalone="no"?>
<!-- Created with Inkscape (http://www.inkscape.org/) -->

<svg
   xmlns:dc="http://purl.org/dc/elements/1.1/"
   xmlns:cc="http://creativecommons.org/ns#"
   xmlns:rdf="http://www.w3.org/1999/02/22-rdf-syntax-ns#"
   xmlns:svg="http://www.w3.org/2000/svg"
   xmlns="http://www.w3.org/2000/svg"
   xmlns:sodipodi="http://sodipodi.sourceforge.net/DTD/sodipodi-0.dtd"
   xmlns:inkscape="http://www.inkscape.org/namespaces/inkscape"
   version="1.1"
   id="svg2"
   width="55.333332"
   height="50"
   viewBox="0 0 55.333332 50"
   sodipodi:docname="BAG.svg"
   inkscape:version="0.92.3 (2405546, 2018-03-11)">
  <metadata
     id="metadata8">
    <rdf:RDF>
      <cc:Work
         rdf:about="">
        <dc:format>image/svg+xml</dc:format>
        <dc:type
           rdf:resource="http://purl.org/dc/dcmitype/StillImage" />
        <dc:title></dc:title>
      </cc:Work>
    </rdf:RDF>
  </metadata>
  <defs
     id="defs6" />
  <sodipodi:namedview
     pagecolor="#ffffff"
     bordercolor="#666666"
     borderopacity="1"
     objecttolerance="10"
     gridtolerance="10"
     guidetolerance="10"
     inkscape:pageopacity="0"
     inkscape:pageshadow="2"
     inkscape:window-width="1859"
     inkscape:window-height="1025"
     id="namedview4"
     showgrid="false"
     inkscape:zoom="4.72"
     inkscape:cx="27.666666"
     inkscape:cy="25"
     inkscape:window-x="61"
     inkscape:window-y="27"
     inkscape:window-maximized="1"
     inkscape:current-layer="svg2" />
  <path
     style="fill:#000000;stroke-width:0.66666669"
     d="M 19.571032,46.611836 C 15.6609,45.108103 10.60487,40.931681 8.3278585,37.324661 6.3455366,34.18446 4.6666666,28.532884 4.6666666,25 c 0,-1.516899 0.4752893,-4.358471 1.0561985,-6.314605 C 8.7315318,8.5541153 17.482113,2 27.999999,2 49.184695,2 58.996387,28.124294 43.15945,42.363063 37.050636,47.855411 27.348725,49.602931 19.571032,46.611836 Z m 15.333876,-2.349235 c 4.341147,-1.479178 9.867478,-6.680313 11.775449,-11.082527 2.094914,-4.833545 2.094914,-11.526603 0,-16.360148 C 44.696566,12.242776 39.219059,7.1787287 34.588334,5.6406492 30.024215,4.1246922 22.762241,4.5610215 18.805672,6.5889365 14.947903,8.5662127 11.279752,12.358304 9.3525524,16.361461 7.4496978,20.31405 7.0790198,28.228548 8.6201171,32 c 2.4191989,5.92039 6.9290479,10.379356 12.5118759,12.37071 3.465412,1.236087 9.977942,1.184968 13.772915,-0.108109 z M 20.678852,39.535768 c -12.0815929,-6.367575 -12.0815929,-22.703961 0,-29.071536 3.217453,-1.6957507 4.173325,-1.8905633 7.99313,-1.62905 4.897925,0.3353253 7.540516,1.479881 10.691194,4.630559 3.126274,3.126274 4.60754,6.834392 4.60754,11.534259 0,4.699867 -1.481266,8.407985 -4.60754,11.534259 -3.150678,3.150678 -5.793269,4.295234 -10.691194,4.630559 -3.819805,0.261513 -4.775677,0.0667 -7.99313,-1.62905 z M 26.666666,25 c 0,-8.032235 -0.256957,-13.666667 -0.623267,-13.666667 -0.342797,0 -1.392797,0.292575 -2.333333,0.650166 l -1.710067,0.650166 v 12.371317 c 0,12.206425 0.01999,12.379353 1.5,12.974243 C 26.719703,39.273388 26.666666,39.490773 26.666666,25 Z m 5.623267,13.016501 1.710066,-0.650166 V 25 12.633665 l -1.710066,-0.650166 c -0.940536,-0.357591 -1.990536,-0.650166 -2.333334,-0.650166 -0.366309,0 -0.623266,5.634432 -0.623266,13.666667 0,8.032235 0.256957,13.666667 0.623266,13.666667 0.342798,0 1.392798,-0.292575 2.333334,-0.650166 z m -12.983694,-13.183168 -0.02709,-10.5 -1.927228,2.253436 c -2.613619,3.056006 -3.687654,7.680054 -2.671072,11.499772 0.676654,2.542464 3.5025,7.246792 4.353081,7.246792 0.164673,0 0.287214,-4.725 0.272312,-10.5 z M 40.09101,31 C 42.295715,26.153321 41.10917,18.179723 37.772318,15.41837 36.750634,14.572893 36.666666,15.300562 36.666666,25 c 0,9.699438 0.08397,10.427107 1.105652,9.58163 C 38.380426,34.0784 39.423838,32.466667 40.09101,31 Z"
     id="path817"
     inkscape:connector-curvature="0" />
</svg>
