<?xml version="1.0" encoding="UTF-8"?>
<svg width="50" height="50" version="1.1" viewBox="0 0 50 50" xmlns="http://www.w3.org/2000/svg" xmlns:xlink="http://www.w3.org/1999/xlink"><defs><clipPath id="clipPath3996"><use width="100%" height="100%" xlink:href="#g3992"/></clipPath></defs><g clip-path="url(#clipPath3996)"></g><path d="m38.99 0.668-3.471 3.539a23.31 23.31 0 0 0-10.52-2.512 23.31 23.31 0 0 0-23.3 23.3 23.31 23.31 0 0 0 23.3 23.3 23.31 23.31 0 0 0 23.3-23.3 23.31 23.31 0 0 0-2.486-10.41l3.609-3.682-10.44-10.24zm-13.99 6.111a18.22 18.22 0 0 1 6.721 1.301l-14.83 15.13 10.44 10.23 14.68-14.97a18.22 18.22 0 0 1 1.213 6.529 18.22 18.22 0 0 1-18.22 18.22 18.22 18.22 0 0 1-18.22-18.22 18.22 18.22 0 0 1 18.22-18.22z" fill="param(fill) #000000"/></svg>
