<?xml version="1.0" encoding="UTF-8"?>
<svg width="50" height="50" version="1.1" viewBox="0 0 50 50" xmlns="http://www.w3.org/2000/svg"><path d="m8.633 46.41c-0.1886-0.2885-0.01726-1.676 0.3806-3.083 0.5527-1.954 0.901-2.419 1.476-1.968 0.8014 0.629 1.999 0.2209 1.999-0.6812 0-0.2986-1.225-1.36-2.722-2.358-2.568-1.712-2.65-1.845-1.441-2.355 1.445-0.6098 1.428-1.126-0.2694-8.23-0.569-2.381-0.9364-5.883-0.8395-8 0.1346-2.939-0.05421-4.002-0.8604-4.844-1.387-1.45-1.302-1.837 0.4029-1.837 1.119 0 1.848-0.6907 3.303-3.13 2.483-4.161 8.728-8.076 10.38-6.51 0.499 0.472 0.486 0.8875-0.05061 1.609-2.974 3.999-3.833 5.819-3.127 6.624 0.591 0.6734 0.5187 0.8915-0.3843 1.16-0.6117 0.1816-2.012 0.7005-3.111 1.153-1.667 0.6864-1.877 0.9617-1.264 1.66 0.5579 0.6358 0.9306 0.6829 1.551 0.1961 0.9073-0.7122 0.9869-0.4962 0.8257 2.24-0.06145 1.042 0.07205 3.393 0.2967 5.223 0.3995 3.256 0.4482 3.328 2.245 3.328h1.837l-1.312 1.321c-1.274 1.283-1.287 1.425-0.4456 4.941 1.149 4.8 1.777 10.87 1.308 12.64-0.3643 1.373-0.5494 1.424-5.108 1.424-2.602 0-4.884-0.2361-5.073-0.5246zm23.56-0.6554c0-0.649-0.6045-1.647-1.343-2.218l-1.343-1.038 1.386-0.4913c0.9161-0.3248 1.84-1.549 2.727-3.611 1.745-4.061 4.509-7.359 5.834-6.961 1.614 0.4845 2.027-0.9511 0.5896-2.052-0.7134-0.5464-1.629-1.126-2.036-1.287-0.5223-0.208-0.4326-0.4771 0.3065-0.9196 1.505-0.9008 1.292-2.117-0.7004-4.001-2.945-2.785-7.808-1.924-7.808 1.383 0 1.538 1.053 2.614 2.557 2.614 1.994 0 0.7132 1.405-1.44 1.58-1.489 0.121-2.386-0.1575-3.181-0.9882-0.6215-0.6495-1.852-1.157-2.806-1.157-1.877 0-2.171-0.6201-0.8031-1.694 0.4926-0.3866 0.8956-1.574 0.8956-2.638 0-2.679 1.333-4.856 3.716-6.07 1.109-0.565 2.517-1.823 3.129-2.795l1.112-1.767 0.6486 2.071c0.8384 2.678 1.18 2.953 2.612 2.108 2.622-1.549 8.396 2.889 9.695 7.452 0.8318 2.922 0.04638 7.804-1.809 11.24-1.163 2.155-1.192 2.448-0.3377 3.342 1.33 1.39 1.175 1.737-0.7764 1.737-1.505 0-1.756 0.2477-2.062 2.035-0.1921 1.119-0.1937 2.771-0.003493 3.67l0.3457 1.635h-4.553c-4.22 0-4.553-0.08629-4.553-1.18zm-9.727-7.149c0.2302-1.399 0.9771-2.637 2.202-3.647 2.433-2.009 2.749-1.958 2.749 0.4377 0 2.567-0.9225 4.198-2.374 4.198-0.6259 0-1.304 0.2541-1.507 0.5647-0.8257 1.264-1.396 0.435-1.069-1.553zm-18.78-7.298c-0.9951-0.6565-1.343-1.445-1.343-3.043 0-1.186 0.226-2.289 0.5021-2.45 0.8552-0.4999 3.08 2.911 3.08 4.721 0 1.93-0.3168 2.04-2.239 0.7714zm40.36-15.64c-0.8154-1.553-0.8711-2.284-0.3223-4.229 0.7787-2.759 1.467-2.738 3.1 0.09548 0.9961 1.729 1.067 2.238 0.4305 3.068-0.42 0.5469-0.9216 1.439-1.115 1.983-0.5036 1.419-0.9751 1.212-2.093-0.917z" fill="param(fill) #000000" stroke-width=".6"/></svg>
