<?xml version="1.0" encoding="UTF-8" standalone="no"?>
<!-- Created with Inkscape (http://www.inkscape.org/) -->

<svg
   xmlns:dc="http://purl.org/dc/elements/1.1/"
   xmlns:cc="http://creativecommons.org/ns#"
   xmlns:rdf="http://www.w3.org/1999/02/22-rdf-syntax-ns#"
   xmlns:svg="http://www.w3.org/2000/svg"
   xmlns="http://www.w3.org/2000/svg"
   xmlns:sodipodi="http://sodipodi.sourceforge.net/DTD/sodipodi-0.dtd"
   xmlns:inkscape="http://www.inkscape.org/namespaces/inkscape"
   version="1.1"
   id="svg2"
   width="57.333332"
   height="56.666668"
   viewBox="0 0 57.333332 56.666668"
   sodipodi:docname="BBA.svg"
   inkscape:version="0.92.3 (2405546, 2018-03-11)">
  <metadata
     id="metadata8">
    <rdf:RDF>
      <cc:Work
         rdf:about="">
        <dc:format>image/svg+xml</dc:format>
        <dc:type
           rdf:resource="http://purl.org/dc/dcmitype/StillImage" />
        <dc:title></dc:title>
      </cc:Work>
    </rdf:RDF>
  </metadata>
  <defs
     id="defs6" />
  <sodipodi:namedview
     pagecolor="#ffffff"
     bordercolor="#666666"
     borderopacity="1"
     objecttolerance="10"
     gridtolerance="10"
     guidetolerance="10"
     inkscape:pageopacity="0"
     inkscape:pageshadow="2"
     inkscape:window-width="1859"
     inkscape:window-height="1025"
     id="namedview4"
     showgrid="false"
     inkscape:zoom="4.1647058"
     inkscape:cx="28.666666"
     inkscape:cy="28.333334"
     inkscape:window-x="61"
     inkscape:window-y="27"
     inkscape:window-maximized="1"
     inkscape:current-layer="svg2" />
  <path
     style="fill:#000000;stroke-width:0.66666669"
     d="m 13.029246,54.047323 c -0.210526,-0.340639 -0.01927,-1.97844 0.425009,-3.639559 0.617075,-2.307173 1.006047,-2.855672 1.647561,-2.323263 0.894783,0.742604 2.231517,0.260838 2.231517,-0.80425 0,-0.352583 -1.367693,-1.605099 -3.039319,-2.78337 -2.867826,-2.021431 -2.958594,-2.178331 -1.608645,-2.780694 1.613344,-0.719895 1.594491,-1.32892 -0.300766,-9.716186 -0.635289,-2.811408 -1.045587,-6.94561 -0.937355,-9.444888 0.150255,-3.469655 -0.06053,-4.724469 -0.960714,-5.71916 -1.5488489,-1.711459 -1.4539129,-2.169286 0.449827,-2.169286 1.249289,0 2.063215,-0.815409 3.688448,-3.695163 2.772154,-4.9119871 9.745302,-9.5347253 11.593982,-7.6860461 0.557209,0.5572094 0.542612,1.0478288 -0.05651,1.899558 -3.320981,4.7211643 -4.280206,6.8696041 -3.491442,7.8200071 0.659828,0.795043 0.57913,1.052526 -0.429086,1.36909 -0.682962,0.214439 -2.245953,0.827062 -3.473313,1.361383 -1.861504,0.810392 -2.09558,1.135344 -1.411547,1.959554 0.622975,0.750638 1.039051,0.806276 1.731564,0.231541 1.013073,-0.840776 1.101967,-0.585776 0.921887,2.644518 -0.06861,1.230777 0.08045,4.005777 0.331247,6.166667 0.446116,3.843773 0.500425,3.928891 2.506746,3.928891 h 2.050752 l -1.464856,1.559268 c -1.422627,1.514317 -1.43697,1.682482 -0.497524,5.833334 1.282518,5.666681 1.98398,12.837882 1.459978,14.925672 -0.406798,1.620812 -0.613382,1.681727 -5.703373,1.681727 -2.904708,0 -5.453537,-0.278705 -5.664064,-0.619345 z M 39.333332,53.27353 c 0,-0.766226 -0.675,-1.944718 -1.5,-2.618871 l -1.5,-1.225731 1.547363,-0.580032 c 1.022907,-0.383439 2.054791,-1.828534 3.044487,-4.263627 1.948722,-4.794723 5.034375,-8.687954 6.513681,-8.218441 1.802304,0.57203 2.262926,-1.122857 0.658289,-2.422213 -0.796579,-0.64503 -1.819312,-1.329033 -2.272739,-1.520005 -0.583183,-0.245622 -0.483037,-0.56331 0.342253,-1.085709 1.68007,-1.063466 1.442381,-2.499083 -0.782052,-4.723516 -3.287717,-3.287717 -8.717948,-2.271032 -8.717948,1.632235 0,1.815802 1.17519,3.085714 2.855555,3.085714 2.226135,0 0.796346,1.659079 -1.607831,1.865672 -1.663058,0.142909 -2.664265,-0.185961 -3.551791,-1.166667 -0.693968,-0.766826 -2.067606,-1.365672 -3.132592,-1.365672 -2.096144,0 -2.42438,-0.732116 -0.896674,-2 0.55,-0.456459 1,-1.85809 1,-3.114736 0,-3.163009 1.487875,-5.732839 4.148894,-7.165893 1.238557,-0.667006 2.810866,-2.151732 3.494021,-3.299388 L 40.218349,13 l 0.724159,2.445436 c 0.936089,3.161114 1.317453,3.486521 2.916051,2.48818 2.927923,-1.828518 9.37497,3.410789 10.825461,8.797502 0.928769,3.449182 0.05179,9.213024 -2.019532,13.27315 -1.298125,2.544535 -1.33121,2.890686 -0.377069,3.944999 1.484774,1.640658 1.311432,2.050734 -0.866859,2.050734 -1.680022,0 -1.960222,0.292403 -2.302728,2.403023 -0.214476,1.321663 -0.216229,3.271663 -0.0039,4.333334 l 0.386034,1.93031 h -5.083333 c -4.711629,0 -5.083334,-0.101869 -5.083334,-1.393138 z M 28.47288,44.833334 c 0.257066,-1.651866 1.090979,-3.112772 2.458087,-4.306239 2.716515,-2.371484 3.069032,-2.31213 3.069032,0.516733 0,3.030244 -1.030071,4.956173 -2.650778,4.956173 -0.698792,0 -1.455942,0.3 -1.682555,0.666667 -0.921982,1.491798 -1.559004,0.513504 -1.193786,-1.833334 z M 7.4999998,36.217052 C 6.388948,35.442022 5.9999999,34.510528 5.9999999,32.624697 c 0,-1.400304 0.2522918,-2.701932 0.5606485,-2.892507 0.9548548,-0.590133 3.4393514,3.436485 3.4393514,5.574149 0,2.278999 -0.353746,2.407863 -2.5,0.910713 z M 52.565813,17.750696 c -0.910415,-1.833064 -0.972676,-2.696717 -0.359908,-4.992456 0.869483,-3.2575251 1.638484,-3.2324778 3.46076,0.112722 1.112197,2.041688 1.191913,2.64235 0.480646,3.62167 -0.468979,0.645719 -1.028968,1.699035 -1.244422,2.340702 -0.562322,1.67472 -1.088708,1.430874 -2.337076,-1.082638 z"
     id="path817"
     inkscape:connector-curvature="0" />
</svg>
