<?xml version="1.0" encoding="UTF-8"?>
<svg width="50" height="50" version="1.1" viewBox="0 0 50 50" xmlns="http://www.w3.org/2000/svg"><path d="m6.344 1.881c-0.9717 0-1.749 0.7183-1.749 1.616v4.489h-1.555c-0.962 0-1.846 0.7183-1.846 1.616v3.502c0 0.8978 0.8842 1.796 1.846 1.796h1.555v14.37c0 10.77 9.231 18.85 20.89 18.85 10.69 0 20.41-8.08 20.41-18.85v-1.796h1.943c0.9717 0 0.9717-0.8978 0.9717-1.796v-2.693c0-0.8978 0-1.796-0.9717-1.796h-1.943v-4.489c0-0.8978-0.9717-0.8978-1.943-0.8978h-9.717c-0.9717 0-1.943 0-1.943 0.8978v4.489h-0.9717c-0.9717 0-1.943 0.8978-1.943 1.796v2.693c0 0.8978 0.9717 1.796 1.943 1.796h0.9717v1.796c0 2.693-0.9717 4.489-3.887 6.285-0.9717 0-2.915 0.8978-3.887 0.8978-3.887-0.8978-6.802-3.591-6.802-7.183v-14.37h1.943c0.9717 0 0.9717-0.8978 0.9717-1.796v-3.502c0-0.8978 0-1.616-0.9717-1.616h-1.943v-4.489c0-0.8978-0.9717-1.616-1.943-1.616zm0 1.526h9.425v4.579h-9.523v-4.489s0-0.08978 0.09717-0.08978zm-3.304 6.105h16.62v3.591h-16.71v-3.502s0-0.08978 0.09717-0.08978zm3.207 5.387h6.607c-0.9717 0.8978-1.943 2.693-0.9717 5.387l0.9717 0.8978c0.9717 0.8978 0.9717 1.796 0.9717 1.796v0.8978c0 0.8978 0 0.8978-0.9717 1.796v0.8978l0.9717 0.8978c0 0.8978 0 2.693 0.9717 2.693v0.8978l-0.9717 0.8978c0 0.8978-0.9717 1.796-0.9717 2.693v0.8978c0.9717 0 3.887 2.693 6.802 2.693 0.9717 0.8978 1.943 0 2.915 0 0.9717 1.796 3.887 4.489 5.83 2.693 1.943 0.8978 1.943-3.591 2.915-4.489h2.915c0.9717 0.8978 1.943 0.8978 1.943 0l-0.9717-2.693v-4.489c0.9717 0 0.9717-0.8978 0.9717-0.8978l0.9717-0.8978h4.858l0.9717 0.8978-0.9717 0.8978 0.9717 2.693v1.796l-1.943 3.591c-1.943-0.8978-2.915-1.796-4.858 1.796-0.9717 0-3.887-0.8978-2.915 2.693l-0.9717 0.8978v0.8978h-4.858c0 0.8978-0.9717 0.8978-2.915 0.8978-1.943 0-2.915 0.8978-2.915 0.8978h-1.943s-0.9717-0.8978 0-1.796v-0.8978s-0.9717-1.796-1.943-1.796v-0.8978h-4.858l-1.943-1.796-1.069-2.693-0.2915-0.8978-0.1943-1.796c-0.09717-0.8978 0.1943-9.876-0.7774-10.77-0.583-0.8978-1.749-2.693-2.332-3.591zm27.98 1.796h9.717v4.489h-9.717zm-2.915 6.285h16.52v3.591h-16.52v-0.8978zm2.915 22.45c-0.9717 0-1.943 0.8978-3.887 0.8978 1.943 0 2.915-0.8978 3.887-0.8978z" fill="param(fill)  #000000" stroke-width=".0934"/></svg>
