<?xml version="1.0" encoding="UTF-8" standalone="no"?>
<!-- Created with Inkscape (http://www.inkscape.org/) -->

<svg
   xmlns:dc="http://purl.org/dc/elements/1.1/"
   xmlns:cc="http://creativecommons.org/ns#"
   xmlns:rdf="http://www.w3.org/1999/02/22-rdf-syntax-ns#"
   xmlns:svg="http://www.w3.org/2000/svg"
   xmlns="http://www.w3.org/2000/svg"
   xmlns:sodipodi="http://sodipodi.sourceforge.net/DTD/sodipodi-0.dtd"
   xmlns:inkscape="http://www.inkscape.org/namespaces/inkscape"
   version="1.1"
   id="svg2"
   width="67.333336"
   height="41.333332"
   viewBox="0 0 67.333336 41.333332"
   sodipodi:docname="BBC.svg"
   inkscape:version="0.92.3 (2405546, 2018-03-11)">
  <metadata
     id="metadata8">
    <rdf:RDF>
      <cc:Work
         rdf:about="">
        <dc:format>image/svg+xml</dc:format>
        <dc:type
           rdf:resource="http://purl.org/dc/dcmitype/StillImage" />
        <dc:title></dc:title>
      </cc:Work>
    </rdf:RDF>
  </metadata>
  <defs
     id="defs6" />
  <sodipodi:namedview
     pagecolor="#ffffff"
     bordercolor="#666666"
     borderopacity="1"
     objecttolerance="10"
     gridtolerance="10"
     guidetolerance="10"
     inkscape:pageopacity="0"
     inkscape:pageshadow="2"
     inkscape:window-width="1859"
     inkscape:window-height="1025"
     id="namedview4"
     showgrid="false"
     inkscape:zoom="5.7096776"
     inkscape:cx="33.666668"
     inkscape:cy="20.666666"
     inkscape:window-x="61"
     inkscape:window-y="27"
     inkscape:window-maximized="1"
     inkscape:current-layer="svg2" />
  <path
     style="fill:#000000;stroke-width:0.66666669"
     d="M 1.3333334,37.333332 V 34.666666 H 33.000001 64.666669 v 2.666666 2.666667 H 33.000001 1.3333334 Z M 8.734311,30.185279 C 7.0904343,23.916281 6.6206408,24.748322 14.395545,20.15879 l 7.071891,-4.174542 3.766282,3.266502 c 6.741661,5.847052 6.573708,5.470918 4.267006,9.556066 l -1.991268,3.526516 -9.057353,0.18528 -9.0573533,0.18528 z m 25.533507,-3.388162 c 1.621325,-3.228252 3.349336,-6.189862 3.840024,-6.581356 1.207427,-0.963344 15.225493,4.828953 15.225493,6.291207 0,0.552753 -0.347486,2.164811 -0.772192,3.582351 l -0.772191,2.577347 H 41.554453 31.319954 Z m -5.567758,-9.09676 -4.261424,-4.299641 1.794428,-2.533692 c 3.9356,-5.55698 2.713718,-5.1122765 12.573908,-4.5762715 4.869688,0.2647187 8.937737,0.5650646 9.040107,0.6674359 0.102371,0.1023707 -0.320542,2.4919746 -0.939808,5.3102316 l -1.125937,5.124101 -4.42065,-0.435599 -4.420651,-0.4356 -1.812808,2.739339 c -0.997044,1.506636 -1.892218,2.739338 -1.989275,2.739338 -0.09706,0 -2.094107,-1.934838 -4.43789,-4.299642 z m 21.799942,3.144392 c -2.75952,-1.132152 -2.955671,-1.797 -1.534018,-5.199496 1.207969,-2.891076 2.644297,-2.951209 5.453607,-0.228318 l 2.149731,2.083601 -1.451326,2.241479 c -0.798231,1.232814 -1.601327,2.216039 -1.784661,2.184946 -0.183333,-0.03109 -1.458333,-0.518089 -2.833333,-1.082212 z"
     id="path817"
     inkscape:connector-curvature="0" />
</svg>
