<?xml version="1.0" encoding="UTF-8"?>
<svg width="50" height="50" version="1.1" viewBox="0 0 50 50" xmlns="http://www.w3.org/2000/svg"><path d="m2.3 29c0.2-18-0.8-19.1 3.9-19.1 2.2 1.1 1.2 0 3.1 4.1 0 1 2.7 2 16.7 2 13 0 14 0 15-1 1-4 1-4 3-5.1 4 0 4 0 4 19.1v17c-3 1-6 0-7-2v-3h-15c-14 0-17.1 0-17.1 2s-1 3-3.5 3c-5.13 0-2.5-7-3.1-17zm38.7-1v-10l-11.46 0.6356-3.059 3.576c-1 4-2.424 5.271-3.424 5.271s-2-0.6356-4 3.364c-2 3-7.059 6.153-7.059 6.153l4-10c2-4 2-6 3-6 1-1 2-2 2-3h-11.8l0.1 10v11h31.7zm-20-18.1c-1-3.5-2-4.4 0-5.4 1-1 4-1 4 0 2 1 1 2.9-1 5.4 0 3.1-1 4.1-1 4.1s-1-1-2-4.1z" fill="param(fill)  #000000"/></svg>
