<?xml version="1.0" encoding="UTF-8"?>
<svg width="50" height="50" version="1.1" viewBox="0 0 50 50" xmlns="http://www.w3.org/2000/svg"><g transform="matrix(1.1,0,0,1.1,-3.5,-2.6)"><g transform="matrix(.08 0 0 .08 5.4 4.3)"><path fill="param(fill) #000000" d="m430 340c-40 20-80 40-100 80v20c10 30 40 50 70 50h10v-10l-20-40 40-20 20 40h20c30-40 10-110-40-120z"/></g><g transform="matrix(.08 0 0 .08 5.4 4.3)"><path fill="param(fill) #000000" d="m410 330c-50-30-90-60-130-90l80-80v-10l-20-20h-10l-80 80c-30-30-50-60-80-90h-10c0 30-50 50-74 60-3 0-4 0-1 10 35 20 65 40 95 70l-124 120c-21 10-45 20-48.9 30l-6.62 20h2.32l53.2 60h10l20-10c14-10 14-30 24-50l130-120c30 30 60 60 80 90h10c20-30 60-50 80-60z"/></g><g transform="matrix(.08 0 0 .08 5.4 4.3)"><path fill="param(fill) #000000" d="m160 77c-10-29-50-48-75-49-3 0-6 2-8 5s-2 6-1 9l17 41-38 17-17-37c-1-3-4-5-7-6s-6 0-9 2c-23.6 21-29.2 61-12 91 6 0 19 20 46 20 54-10 84-40 104-74z"/></g><g transform="matrix(.08 0 0 .08 5.4 4.3)"><path fill="param(fill) #000000" d="m510 140-20-20-30-10c0-10 0-13-10-17 0-5 0-11-10-19-60-58-120-74.53-180-33 0 1-10 10-10 13v27c0 3 30-13 30-11 30 0 40 2 70 15l-10 13v12l40 40h40l10 30 20 20h10l50-50z"/></g></g></svg>
