<?xml version="1.0" encoding="UTF-8"?>
<svg width="50" height="50" version="1.1" viewBox="0 0 50 50" xmlns="http://www.w3.org/2000/svg"><path d="m2.672 25v-14.61h14.06c17.31 0 16.69-0.1981 16.69 5.383 0 2.127 0.1711 3.867 0.3802 3.867 0.2091 0 2.886-2.027 5.949-4.504 3.063-2.477 6.019-4.504 6.57-4.504 0.9169 0 1 1.198 1 14.36 0 13.09-0.08754 14.36-0.9872 14.36-0.543 0-3.519-2.027-6.613-4.504-3.094-2.477-5.777-4.504-5.962-4.504-0.1852 0-0.3368 1.74-0.3368 3.867 0 5.581 0.6142 5.383-16.69 5.383h-14.06z" fill="param(fill) #000000" stroke-width=".5"/><rect transform="matrix(.7271 .6865 -.7095 .7047 0 0)" x="7.601" y="3.272" width="47" height="3.322" fill="#c20000"/><rect transform="matrix(.7168 -.6973 .6725 .7401 0 0)" x="-24.67" y="30.27" width="46.21" height="3.276" fill="#c20000"/></svg>
